<?xml version="1.0" encoding="UTF-8" standalone="no"?>
<!DOCTYPE svg PUBLIC "-//W3C//DTD SVG 1.1//EN"
 "http://www.w3.org/Graphics/SVG/1.1/DTD/svg11.dtd">
<!-- Generated by graphviz version 14.1.5 (20260411.2331)
 -->
<!-- Title: Topology Pages: 1 -->
<svg width="4076pt" height="997pt"
 viewBox="0.00 0.00 4076.00 997.00" xmlns="http://www.w3.org/2000/svg" xmlns:xlink="http://www.w3.org/1999/xlink">
<g id="graph0" class="graph" transform="scale(1 1) rotate(0) translate(4 993.31)">
<title>Topology</title>
<polygon fill="white" stroke="none" points="-4,4 -4,-993.31 4071.92,-993.31 4071.92,4 -4,4"/>
<g id="clust1" class="cluster">
<title>cluster_idmz</title>
<polygon fill="orange" stroke="orange" points="314.62,-20 314.62,-270 1285.35,-270 1285.35,-20 314.62,-20"/>
<text xml:space="preserve" text-anchor="middle" x="799.99" y="-252.7" font-family="Times New Roman,serif" font-size="14.00">idmz</text>
</g>
<g id="clust2" class="cluster">
<title>cluster_supervisory</title>
<polygon fill="yellow" stroke="yellow" points="1024.52,-278 1024.52,-528 2147.98,-528 2147.98,-278 1024.52,-278"/>
<text xml:space="preserve" text-anchor="middle" x="1586.25" y="-510.7" font-family="Times New Roman,serif" font-size="14.00">supervisory</text>
</g>
<g id="clust3" class="cluster">
<title>cluster_station_control</title>
<polygon fill="lightgreen" stroke="lightgreen" points="1868.06,-725 1868.06,-899 2989.47,-899 2989.47,-725 1868.06,-725"/>
<text xml:space="preserve" text-anchor="middle" x="2428.76" y="-881.7" font-family="Times New Roman,serif" font-size="14.00">station_control</text>
</g>
<g id="clust4" class="cluster">
<title>cluster_telecom</title>
<polygon fill="cyan" stroke="cyan" points="1889.27,-544 1889.27,-642 2961.89,-642 2961.89,-544 1889.27,-544"/>
<text xml:space="preserve" text-anchor="middle" x="2425.58" y="-624.7" font-family="Times New Roman,serif" font-size="14.00">telecom</text>
</g>
<g id="clust5" class="cluster">
<title>cluster_maintenance</title>
<polygon fill="white" stroke="white" points="1031.41,-558 1031.41,-656 2135.26,-656 2135.26,-558 1031.41,-558"/>
<text xml:space="preserve" text-anchor="middle" x="1583.33" y="-638.7" font-family="Times New Roman,serif" font-size="14.00">maintenance</text>
</g>
<g id="clust6" class="cluster">
<title>cluster_enterprise_it</title>
<polygon fill="lightblue" stroke="lightblue" points="8,-57 8,-231 230.12,-231 230.12,-57 8,-57"/>
<text xml:space="preserve" text-anchor="middle" x="119.06" y="-213.7" font-family="Times New Roman,serif" font-size="14.00">enterprise_it</text>
</g>
<g id="clust7" class="cluster">
<title>cluster_security_management</title>
<polygon fill="red" stroke="red" points="1895.63,-544 1895.63,-619 2554.96,-619 2554.96,-544 1895.63,-544"/>
<text xml:space="preserve" text-anchor="middle" x="2225.3" y="-601.7" font-family="Times New Roman,serif" font-size="14.00">security_management</text>
</g>
<g id="clust8" class="cluster">
<title>cluster_interlocking</title>
<polygon fill="pink" stroke="pink" points="1846.84,-678 1846.84,-754 2188.82,-754 2188.82,-678 1846.84,-678"/>
<text xml:space="preserve" text-anchor="middle" x="2017.83" y="-736.7" font-family="Times New Roman,serif" font-size="14.00">interlocking</text>
</g>
<g id="clust9" class="cluster">
<title>cluster_field</title>
<polygon fill="lightgray" stroke="lightgray" points="2383.75,-627 2383.75,-717 2567.69,-717 2567.69,-627 2383.75,-627"/>
<text xml:space="preserve" text-anchor="middle" x="2475.72" y="-699.7" font-family="Times New Roman,serif" font-size="14.00">field</text>
</g>
<g id="clust10" class="cluster">
<title>cluster_radio_network</title>
<polygon fill="white" stroke="white" points="3086.72,-157 3086.72,-255 3336.42,-255 3336.42,-157 3086.72,-157"/>
<text xml:space="preserve" text-anchor="middle" x="3211.57" y="-237.7" font-family="Times New Roman,serif" font-size="14.00">radio_network</text>
</g>
<g id="clust11" class="cluster">
<title>cluster_onboard</title>
<polygon fill="violet" stroke="violet" points="3418.67,-157 3418.67,-255 4059.92,-255 4059.92,-157 3418.67,-157"/>
<text xml:space="preserve" text-anchor="middle" x="3739.29" y="-237.7" font-family="Times New Roman,serif" font-size="14.00">onboard</text>
</g>
<!-- fw&#45;enterprise&#45;idmz -->
<g id="node1" class="node">
<title>fw&#45;enterprise&#45;idmz</title>
<ellipse fill="none" stroke="black" cx="435.76" cy="-137" rx="113.14" ry="28.99"/>
<text xml:space="preserve" text-anchor="middle" x="435.76" y="-140.2" font-family="Times New Roman,serif" font-size="14.00">Enterprise&#45;IDMZ Firewall</text>
<text xml:space="preserve" text-anchor="middle" x="435.76" y="-123.7" font-family="Times New Roman,serif" font-size="14.00">[firewall]</text>
</g>
<!-- dmz&#45;historian -->
<g id="node3" class="node">
<title>dmz&#45;historian</title>
<ellipse fill="none" stroke="black" cx="790.71" cy="-57" rx="103.06" ry="28.99"/>
<text xml:space="preserve" text-anchor="middle" x="790.71" y="-60.2" font-family="Times New Roman,serif" font-size="14.00">IDMZ Historian Mirror</text>
<text xml:space="preserve" text-anchor="middle" x="790.71" y="-43.7" font-family="Times New Roman,serif" font-size="14.00">[historian]</text>
</g>
<!-- fw&#45;enterprise&#45;idmz&#45;&gt;dmz&#45;historian -->
<g id="edge3" class="edge">
<title>fw&#45;enterprise&#45;idmz&#45;&gt;dmz&#45;historian</title>
<path fill="none" stroke="black" d="M521.75,-117.74C575.09,-105.65 643.83,-90.06 698.34,-77.71"/>
<polygon fill="black" stroke="black" points="698.94,-81.16 707.92,-75.54 697.39,-74.34 698.94,-81.16"/>
<text xml:space="preserve" text-anchor="middle" x="618.27" y="-109.72" font-family="Times New Roman,serif" font-size="14.00">SQL/TLS 🔒</text>
</g>
<!-- dmz&#45;jump&#45;server -->
<g id="node4" class="node">
<title>dmz&#45;jump&#45;server</title>
<ellipse fill="none" stroke="black" cx="790.71" cy="-133" rx="87.68" ry="28.99"/>
<text xml:space="preserve" text-anchor="middle" x="790.71" y="-136.2" font-family="Times New Roman,serif" font-size="14.00">IDMZ Jump Server</text>
<text xml:space="preserve" text-anchor="middle" x="790.71" y="-119.7" font-family="Times New Roman,serif" font-size="14.00">[dmz_host]</text>
</g>
<!-- fw&#45;enterprise&#45;idmz&#45;&gt;dmz&#45;jump&#45;server -->
<g id="edge4" class="edge">
<title>fw&#45;enterprise&#45;idmz&#45;&gt;dmz&#45;jump&#45;server</title>
<path fill="none" stroke="black" d="M548.92,-135.73C594.69,-135.21 647.15,-134.62 691.39,-134.11"/>
<polygon fill="black" stroke="black" points="691.28,-137.62 701.24,-134 691.2,-130.62 691.28,-137.62"/>
<text xml:space="preserve" text-anchor="middle" x="618.27" y="-138.68" font-family="Times New Roman,serif" font-size="14.00">SSH over TLS 🔒</text>
</g>
<!-- vpn&#45;gateway -->
<g id="node5" class="node">
<title>vpn&#45;gateway</title>
<ellipse fill="none" stroke="black" cx="790.71" cy="-209" rx="68.59" ry="28.99"/>
<text xml:space="preserve" text-anchor="middle" x="790.71" y="-212.2" font-family="Times New Roman,serif" font-size="14.00">VPN Gateway</text>
<text xml:space="preserve" text-anchor="middle" x="790.71" y="-195.7" font-family="Times New Roman,serif" font-size="14.00">[vpn_gateway]</text>
</g>
<!-- fw&#45;enterprise&#45;idmz&#45;&gt;vpn&#45;gateway -->
<g id="edge5" class="edge">
<title>fw&#45;enterprise&#45;idmz&#45;&gt;vpn&#45;gateway</title>
<path fill="none" stroke="black" d="M525.37,-155.08C584.59,-167.16 661.53,-182.85 717.12,-194.19"/>
<polygon fill="black" stroke="black" points="716.31,-197.6 726.81,-196.17 717.71,-190.74 716.31,-197.6"/>
<text xml:space="preserve" text-anchor="middle" x="618.27" y="-186.86" font-family="Times New Roman,serif" font-size="14.00">TLS VPN 🔒</text>
</g>
<!-- fw&#45;idmz&#45;supervisory -->
<g id="node2" class="node">
<title>fw&#45;idmz&#45;supervisory</title>
<ellipse fill="none" stroke="black" cx="1157.32" cy="-190" rx="120.03" ry="28.99"/>
<text xml:space="preserve" text-anchor="middle" x="1157.32" y="-193.2" font-family="Times New Roman,serif" font-size="14.00">IDMZ&#45;Supervisory Firewall</text>
<text xml:space="preserve" text-anchor="middle" x="1157.32" y="-176.7" font-family="Times New Roman,serif" font-size="14.00">[firewall]</text>
</g>
<!-- ccc&#45;servers -->
<g id="node8" class="node">
<title>ccc&#45;servers</title>
<ellipse fill="none" stroke="black" cx="1568.48" cy="-315" rx="130.64" ry="28.99"/>
<text xml:space="preserve" text-anchor="middle" x="1568.48" y="-318.2" font-family="Times New Roman,serif" font-size="14.00">Central Control Centre Servers</text>
<text xml:space="preserve" text-anchor="middle" x="1568.48" y="-301.7" font-family="Times New Roman,serif" font-size="14.00">[safety_server]</text>
</g>
<!-- fw&#45;idmz&#45;supervisory&#45;&gt;ccc&#45;servers -->
<g id="edge9" class="edge">
<title>fw&#45;idmz&#45;supervisory&#45;&gt;ccc&#45;servers</title>
<path fill="none" stroke="black" d="M1232.89,-212.78C1302.43,-234.02 1406.17,-265.72 1479.68,-288.18"/>
<polygon fill="black" stroke="black" points="1478.27,-291.4 1488.85,-290.98 1480.31,-284.71 1478.27,-291.4"/>
<text xml:space="preserve" text-anchor="middle" x="1351.5" y="-266.9" font-family="Times New Roman,serif" font-size="14.00">OPC UA 🔒</text>
</g>
<!-- dmz&#45;jump&#45;server&#45;&gt;fw&#45;idmz&#45;supervisory -->
<g id="edge8" class="edge">
<title>dmz&#45;jump&#45;server&#45;&gt;fw&#45;idmz&#45;supervisory</title>
<path fill="none" stroke="black" d="M870.37,-145.3C921.21,-153.24 988.14,-163.71 1044.46,-172.51"/>
<polygon fill="black" stroke="black" points="1043.66,-175.93 1054.08,-174.02 1044.74,-169.01 1043.66,-175.93"/>
<text xml:space="preserve" text-anchor="middle" x="963.14" y="-169.81" font-family="Times New Roman,serif" font-size="14.00">SSH over TLS 🔒</text>
</g>
<!-- fw&#45;maintenance -->
<g id="node19" class="node">
<title>fw&#45;maintenance</title>
<ellipse fill="none" stroke="black" cx="1157.32" cy="-574" rx="117.91" ry="28.99"/>
<text xml:space="preserve" text-anchor="middle" x="1157.32" y="-577.2" font-family="Times New Roman,serif" font-size="14.00">Maintenance Zone Firewall</text>
<text xml:space="preserve" text-anchor="middle" x="1157.32" y="-560.7" font-family="Times New Roman,serif" font-size="14.00">[firewall]</text>
</g>
<!-- vpn&#45;gateway&#45;&gt;fw&#45;maintenance -->
<g id="edge32" class="edge">
<title>vpn&#45;gateway&#45;&gt;fw&#45;maintenance</title>
<path fill="none" stroke="black" d="M804.41,-237.43C833.85,-300.11 912.87,-451.05 1024.52,-532 1034.67,-539.36 1046.16,-545.47 1058.02,-550.52"/>
<polygon fill="black" stroke="black" points="1056.53,-553.69 1067.12,-554.14 1059.12,-547.19 1056.53,-553.69"/>
<text xml:space="preserve" text-anchor="middle" x="963.14" y="-522.2" font-family="Times New Roman,serif" font-size="14.00">TLS VPN 🔒</text>
</g>
<!-- data&#45;diode -->
<g id="node6" class="node">
<title>data&#45;diode</title>
<ellipse fill="none" stroke="black" cx="435.76" cy="-57" rx="59.57" ry="28.99"/>
<text xml:space="preserve" text-anchor="middle" x="435.76" y="-60.2" font-family="Times New Roman,serif" font-size="14.00">Data Diode</text>
<text xml:space="preserve" text-anchor="middle" x="435.76" y="-43.7" font-family="Times New Roman,serif" font-size="14.00">[data_diode]</text>
</g>
<!-- data&#45;diode&#45;&gt;dmz&#45;historian -->
<g id="edge6" class="edge">
<title>data&#45;diode&#45;&gt;dmz&#45;historian</title>
<path fill="none" stroke="black" d="M495.44,-57C544.42,-57 615.69,-57 675.82,-57"/>
<polygon fill="black" stroke="black" points="675.79,-60.5 685.79,-57 675.79,-53.5 675.79,-60.5"/>
<text xml:space="preserve" text-anchor="middle" x="618.27" y="-60.2" font-family="Times New Roman,serif" font-size="14.00">Syslog TLS 🔒</text>
</g>
<!-- fw&#45;supervisory&#45;station -->
<g id="node7" class="node">
<title>fw&#45;supervisory&#45;station</title>
<ellipse fill="none" stroke="black" cx="2017.83" cy="-391" rx="122.15" ry="28.99"/>
<text xml:space="preserve" text-anchor="middle" x="2017.83" y="-394.2" font-family="Times New Roman,serif" font-size="14.00">Supervisory&#45;Station Firewall</text>
<text xml:space="preserve" text-anchor="middle" x="2017.83" y="-377.7" font-family="Times New Roman,serif" font-size="14.00">[firewall]</text>
</g>
<!-- kavach&#45;station&#45;fleet -->
<g id="node13" class="node">
<title>kavach&#45;station&#45;fleet</title>
<ellipse fill="none" stroke="black" cx="2017.83" cy="-803" rx="141.77" ry="28.99"/>
<text xml:space="preserve" text-anchor="middle" x="2017.83" y="-806.2" font-family="Times New Roman,serif" font-size="14.00">Stationary Kavach Servers (Fleet)</text>
<text xml:space="preserve" text-anchor="middle" x="2017.83" y="-789.7" font-family="Times New Roman,serif" font-size="14.00">[kavach_station]</text>
</g>
<!-- fw&#45;supervisory&#45;station&#45;&gt;kavach&#45;station&#45;fleet -->
<g id="edge19" class="edge">
<title>fw&#45;supervisory&#45;station&#45;&gt;kavach&#45;station&#45;fleet</title>
<path fill="none" stroke="black" d="M1899.28,-398.31C1879.59,-404.48 1861.01,-414.15 1846.84,-429 1795.98,-482.33 1746.57,-699.08 1793.07,-756.25 1811.22,-778.56 1837,-792.01 1864.67,-799.82"/>
<polygon fill="black" stroke="black" points="1863.75,-803.2 1874.3,-802.27 1865.47,-796.41 1863.75,-803.2"/>
<text xml:space="preserve" text-anchor="middle" x="1785.47" y="-742.95" font-family="Times New Roman,serif" font-size="14.00">RaSTA 🔒</text>
</g>
<!-- ccc&#45;servers&#45;&gt;fw&#45;supervisory&#45;station -->
<g id="edge14" class="edge">
<title>ccc&#45;servers&#45;&gt;fw&#45;supervisory&#45;station</title>
<path fill="none" stroke="black" d="M1673.24,-332.63C1743.06,-344.49 1835.03,-360.11 1906.24,-372.21"/>
<polygon fill="black" stroke="black" points="1905.54,-375.64 1915.99,-373.87 1906.72,-368.74 1905.54,-375.64"/>
<text xml:space="preserve" text-anchor="middle" x="1785.47" y="-363.01" font-family="Times New Roman,serif" font-size="14.00">RaSTA 🔒</text>
</g>
<!-- ccc&#45;hmi -->
<g id="node9" class="node">
<title>ccc&#45;hmi</title>
<ellipse fill="none" stroke="black" cx="2017.83" cy="-467" rx="104.65" ry="28.99"/>
<text xml:space="preserve" text-anchor="middle" x="2017.83" y="-470.2" font-family="Times New Roman,serif" font-size="14.00">CCC HMI Workstations</text>
<text xml:space="preserve" text-anchor="middle" x="2017.83" y="-453.7" font-family="Times New Roman,serif" font-size="14.00">[hmi]</text>
</g>
<!-- ccc&#45;servers&#45;&gt;ccc&#45;hmi -->
<g id="edge10" class="edge">
<title>ccc&#45;servers&#45;&gt;ccc&#45;hmi</title>
<path fill="none" stroke="black" d="M1666.61,-334.52C1683.92,-340.45 1701.17,-348.11 1716.09,-358 1726.62,-364.98 1724.02,-372.38 1734.09,-380 1777.67,-412.96 1794.89,-412.07 1846.84,-429 1869.8,-436.48 1894.98,-442.99 1918.75,-448.41"/>
<polygon fill="black" stroke="black" points="1917.93,-451.81 1928.45,-450.57 1919.46,-444.98 1917.93,-451.81"/>
<text xml:space="preserve" text-anchor="middle" x="1785.47" y="-428.45" font-family="Times New Roman,serif" font-size="14.00">OPC UA 🔒</text>
</g>
<!-- ot&#45;historian -->
<g id="node10" class="node">
<title>ot&#45;historian</title>
<ellipse fill="none" stroke="black" cx="2017.83" cy="-315" rx="62.23" ry="28.99"/>
<text xml:space="preserve" text-anchor="middle" x="2017.83" y="-318.2" font-family="Times New Roman,serif" font-size="14.00">OT Historian</text>
<text xml:space="preserve" text-anchor="middle" x="2017.83" y="-301.7" font-family="Times New Roman,serif" font-size="14.00">[historian]</text>
</g>
<!-- ccc&#45;servers&#45;&gt;ot&#45;historian -->
<g id="edge11" class="edge">
<title>ccc&#45;servers&#45;&gt;ot&#45;historian</title>
<path fill="none" stroke="black" d="M1699.48,-315C1779.1,-315 1878.05,-315 1944.09,-315"/>
<polygon fill="black" stroke="black" points="1943.7,-318.5 1953.7,-315 1943.7,-311.5 1943.7,-318.5"/>
<text xml:space="preserve" text-anchor="middle" x="1785.47" y="-318.2" font-family="Times New Roman,serif" font-size="14.00">SQL/TLS 🔒</text>
</g>
<!-- siem -->
<g id="node25" class="node">
<title>siem</title>
<ellipse fill="none" stroke="black" cx="2475.72" cy="-590" rx="71.24" ry="28.99"/>
<text xml:space="preserve" text-anchor="middle" x="2475.72" y="-593.2" font-family="Times New Roman,serif" font-size="14.00">SIEM Platform</text>
<text xml:space="preserve" text-anchor="middle" x="2475.72" y="-576.7" font-family="Times New Roman,serif" font-size="14.00">[siem]</text>
</g>
<!-- ccc&#45;servers&#45;&gt;siem -->
<g id="edge15" class="edge">
<title>ccc&#45;servers&#45;&gt;siem</title>
<path fill="none" stroke="black" d="M1679.52,-330.49C1693.66,-336.92 1706.51,-345.79 1716.09,-358 1743.49,-392.91 1702.01,-726.33 1734.09,-757 1767.1,-788.56 1803.83,-788.55 1836.84,-757 1854.5,-740.13 1829.19,-554.37 1846.84,-537.5 1874.32,-511.25 2160.75,-511.89 2188.82,-537.5 2206.71,-553.82 2180.93,-629.68 2198.82,-646 2237.98,-681.72 2270.42,-669.21 2318.07,-646 2329.74,-640.31 2325.14,-630.01 2336.07,-623 2353.64,-611.73 2374.7,-604.3 2395.02,-599.41"/>
<polygon fill="black" stroke="black" points="2395.72,-602.84 2404.74,-597.27 2394.22,-596.01 2395.72,-602.84"/>
<text xml:space="preserve" text-anchor="middle" x="2017.83" y="-540.7" font-family="Times New Roman,serif" font-size="14.00">Syslog TLS 🔒</text>
</g>
<!-- ot&#45;historian&#45;&gt;data&#45;diode -->
<g id="edge7" class="edge">
<title>ot&#45;historian&#45;&gt;data&#45;diode</title>
<path fill="none" stroke="black" d="M1997.41,-287.32C1940.96,-210.46 1768.24,0 1569.48,0 789.71,0 789.71,0 789.71,0 687.04,0 569.7,-23.79 499.51,-40.64"/>
<polygon fill="black" stroke="black" points="499.02,-37.15 490.13,-42.92 500.67,-43.96 499.02,-37.15"/>
<text xml:space="preserve" text-anchor="middle" x="1157.32" y="-3.2" font-family="Times New Roman,serif" font-size="14.00">Syslog TLS 🔒</text>
</g>
<!-- ntp&#45;server -->
<g id="node11" class="node">
<title>ntp&#45;server</title>
<ellipse fill="none" stroke="black" cx="1157.32" cy="-348" rx="124.8" ry="28.99"/>
<text xml:space="preserve" text-anchor="middle" x="1157.32" y="-351.2" font-family="Times New Roman,serif" font-size="14.00">Time Synchronization Server</text>
<text xml:space="preserve" text-anchor="middle" x="1157.32" y="-334.7" font-family="Times New Roman,serif" font-size="14.00">[ntp_server]</text>
</g>
<!-- ntp&#45;server&#45;&gt;ccc&#45;servers -->
<g id="edge12" class="edge">
<title>ntp&#45;server&#45;&gt;ccc&#45;servers</title>
<path fill="none" stroke="black" d="M1275.85,-338.52C1325.13,-334.55 1382.69,-329.9 1433.6,-325.8"/>
<polygon fill="black" stroke="black" points="1433.83,-329.29 1443.52,-325 1433.27,-322.31 1433.83,-329.29"/>
<text xml:space="preserve" text-anchor="middle" x="1351.5" y="-339.58" font-family="Times New Roman,serif" font-size="14.00">NTP</text>
</g>
<!-- ntp&#45;server&#45;&gt;kavach&#45;station&#45;fleet -->
<g id="edge13" class="edge">
<title>ntp&#45;server&#45;&gt;kavach&#45;station&#45;fleet</title>
<path fill="none" stroke="black" d="M1261.07,-364.52C1379.57,-387.5 1576,-438.02 1716.09,-537.5 1787.15,-587.96 1802.35,-611.96 1836.84,-692 1848.58,-719.25 1827.03,-735.92 1846.84,-758 1857.01,-769.34 1869.68,-777.97 1883.47,-784.51"/>
<polygon fill="black" stroke="black" points="1881.74,-787.57 1892.31,-788.31 1884.51,-781.14 1881.74,-787.57"/>
<text xml:space="preserve" text-anchor="middle" x="1568.48" y="-540.7" font-family="Times New Roman,serif" font-size="14.00">NTP</text>
</g>
<!-- fw&#45;station&#45;interlocking -->
<g id="node12" class="node">
<title>fw&#45;station&#45;interlocking</title>
<ellipse fill="none" stroke="black" cx="2475.72" cy="-762" rx="122.68" ry="28.99"/>
<text xml:space="preserve" text-anchor="middle" x="2475.72" y="-765.2" font-family="Times New Roman,serif" font-size="14.00">Station&#45;Interlocking Firewall</text>
<text xml:space="preserve" text-anchor="middle" x="2475.72" y="-748.7" font-family="Times New Roman,serif" font-size="14.00">[firewall]</text>
</g>
<!-- ei&#45;fleet -->
<g id="node27" class="node">
<title>ei&#45;fleet</title>
<ellipse fill="none" stroke="black" cx="2017.83" cy="-715" rx="162.99" ry="28.99"/>
<text xml:space="preserve" text-anchor="middle" x="2017.83" y="-718.2" font-family="Times New Roman,serif" font-size="14.00">Electronic Interlocking Systems (Fleet)</text>
<text xml:space="preserve" text-anchor="middle" x="2017.83" y="-701.7" font-family="Times New Roman,serif" font-size="14.00">[ei]</text>
</g>
<!-- fw&#45;station&#45;interlocking&#45;&gt;ei&#45;fleet -->
<g id="edge23" class="edge">
<title>fw&#45;station&#45;interlocking&#45;&gt;ei&#45;fleet</title>
<path fill="none" stroke="black" d="M2360.23,-751.78C2310.59,-747.21 2251.81,-741.59 2198.82,-736 2188.03,-734.86 2176.87,-733.65 2165.65,-732.4"/>
<polygon fill="black" stroke="black" points="2166.25,-728.95 2155.92,-731.31 2165.47,-735.9 2166.25,-728.95"/>
<text xml:space="preserve" text-anchor="middle" x="2258.44" y="-750.51" font-family="Times New Roman,serif" font-size="14.00">RaSTA 🔒</text>
</g>
<!-- kavach&#45;station&#45;fleet&#45;&gt;fw&#45;station&#45;interlocking -->
<g id="edge22" class="edge">
<title>kavach&#45;station&#45;fleet&#45;&gt;fw&#45;station&#45;interlocking</title>
<path fill="none" stroke="black" d="M2148.25,-791.36C2211.33,-785.69 2286.87,-778.89 2349.39,-773.27"/>
<polygon fill="black" stroke="black" points="2349.36,-776.79 2359,-772.41 2348.73,-769.82 2349.36,-776.79"/>
<text xml:space="preserve" text-anchor="middle" x="2258.44" y="-789.37" font-family="Times New Roman,serif" font-size="14.00">RaSTA 🔒</text>
</g>
<!-- kavach&#45;station&#45;fleet&#45;&gt;kavach&#45;station&#45;fleet -->
<g id="edge36" class="edge">
<title>kavach&#45;station&#45;fleet&#45;&gt;kavach&#45;station&#45;fleet</title>
<path fill="none" stroke="black" d="M1974.36,-830.98C1972.93,-841.41 1987.42,-849.99 2017.83,-849.99 2037.31,-849.99 2050.26,-846.47 2056.67,-841.2"/>
<polygon fill="black" stroke="black" points="2059.74,-842.91 2060.68,-832.36 2053.36,-840.02 2059.74,-842.91"/>
<text xml:space="preserve" text-anchor="middle" x="2017.83" y="-853.19" font-family="Times New Roman,serif" font-size="14.00">RaSTA 🔒</text>
</g>
<!-- station&#45;switch&#45;fleet -->
<g id="node15" class="node">
<title>station&#45;switch&#45;fleet</title>
<ellipse fill="none" stroke="black" cx="2475.72" cy="-838" rx="139.65" ry="28.99"/>
<text xml:space="preserve" text-anchor="middle" x="2475.72" y="-841.2" font-family="Times New Roman,serif" font-size="14.00">Station Network Switches (Fleet)</text>
<text xml:space="preserve" text-anchor="middle" x="2475.72" y="-824.7" font-family="Times New Roman,serif" font-size="14.00">[switch]</text>
</g>
<!-- kavach&#45;station&#45;fleet&#45;&gt;station&#45;switch&#45;fleet -->
<g id="edge20" class="edge">
<title>kavach&#45;station&#45;fleet&#45;&gt;station&#45;switch&#45;fleet</title>
<path fill="none" stroke="black" d="M2151.31,-813.17C2208.24,-817.54 2274.87,-822.66 2332.81,-827.11"/>
<polygon fill="black" stroke="black" points="2332.53,-830.59 2342.77,-827.87 2333.07,-823.61 2332.53,-830.59"/>
<text xml:space="preserve" text-anchor="middle" x="2258.44" y="-828.88" font-family="Times New Roman,serif" font-size="14.00">IEC 61850 MMS 🔒</text>
</g>
<!-- telecom&#45;gateway -->
<g id="node17" class="node">
<title>telecom&#45;gateway</title>
<ellipse fill="none" stroke="black" cx="2017.83" cy="-693" rx="120.56" ry="28.99"/>
<text xml:space="preserve" text-anchor="middle" x="2017.83" y="-696.2" font-family="Times New Roman,serif" font-size="14.00">Telecom Transport Gateway</text>
<text xml:space="preserve" text-anchor="middle" x="2017.83" y="-679.7" font-family="Times New Roman,serif" font-size="14.00">[telecom_gateway]</text>
</g>
<!-- kavach&#45;station&#45;fleet&#45;&gt;telecom&#45;gateway -->
<g id="edge25" class="edge">
<title>kavach&#45;station&#45;fleet&#45;&gt;telecom&#45;gateway</title>
<path fill="none" stroke="black" d="M1875.97,-801.6C1814.22,-795.6 1762.18,-779.53 1793.07,-739.75 1815.55,-710.79 1850.9,-696.61 1886.96,-690.32"/>
<polygon fill="black" stroke="black" points="1887.3,-693.81 1896.66,-688.84 1886.25,-686.89 1887.3,-693.81"/>
<text xml:space="preserve" text-anchor="middle" x="1785.47" y="-742.95" font-family="Times New Roman,serif" font-size="14.00">RaSTA 🔒</text>
</g>
<!-- kavach&#45;station&#45;fleet&#45;&gt;siem -->
<g id="edge37" class="edge">
<title>kavach&#45;station&#45;fleet&#45;&gt;siem</title>
<path fill="none" stroke="black" d="M2140.57,-788.18C2158.58,-781.36 2175.52,-771.68 2188.82,-758 2202.35,-744.09 2184.63,-728.74 2198.82,-715.5 2238.08,-678.86 2278.61,-732.43 2318.07,-696 2342.62,-673.33 2312.35,-646.53 2336.07,-623 2351.33,-607.86 2372.21,-599.2 2393.13,-594.35"/>
<polygon fill="black" stroke="black" points="2393.77,-597.79 2402.89,-592.4 2392.4,-590.93 2393.77,-597.79"/>
<text xml:space="preserve" text-anchor="middle" x="2258.44" y="-718.7" font-family="Times New Roman,serif" font-size="14.00">Syslog TLS 🔒</text>
</g>
<!-- radio&#45;base&#45;stations -->
<g id="node29" class="node">
<title>radio&#45;base&#45;stations</title>
<ellipse fill="none" stroke="black" cx="3211.57" cy="-194" rx="116.85" ry="28.99"/>
<text xml:space="preserve" text-anchor="middle" x="3211.57" y="-197.2" font-family="Times New Roman,serif" font-size="14.00">Radio Base Stations (Fleet)</text>
<text xml:space="preserve" text-anchor="middle" x="3211.57" y="-180.7" font-family="Times New Roman,serif" font-size="14.00">[radio_base_station]</text>
</g>
<!-- kavach&#45;station&#45;fleet&#45;&gt;radio&#45;base&#45;stations -->
<g id="edge30" class="edge">
<title>kavach&#45;station&#45;fleet&#45;&gt;radio&#45;base&#45;stations</title>
<path fill="none" stroke="black" d="M2074.93,-829.96C2235.4,-902.74 2703.12,-1084.19 2989.47,-876 3097.81,-797.23 3180.26,-368.85 3203.78,-234.4"/>
<polygon fill="black" stroke="black" points="3207.16,-235.35 3205.42,-224.9 3200.27,-234.15 3207.16,-235.35"/>
<text xml:space="preserve" text-anchor="middle" x="2669.38" y="-976.01" font-family="Times New Roman,serif" font-size="14.00">RaSTA 🔒</text>
</g>
<!-- station&#45;hmi&#45;fleet -->
<g id="node14" class="node">
<title>station&#45;hmi&#45;fleet</title>
<ellipse fill="none" stroke="black" cx="2852.42" cy="-838" rx="129.05" ry="28.99"/>
<text xml:space="preserve" text-anchor="middle" x="2852.42" y="-841.2" font-family="Times New Roman,serif" font-size="14.00">Station HMI Terminals (Fleet)</text>
<text xml:space="preserve" text-anchor="middle" x="2852.42" y="-824.7" font-family="Times New Roman,serif" font-size="14.00">[hmi]</text>
</g>
<!-- station&#45;switch&#45;fleet&#45;&gt;station&#45;hmi&#45;fleet -->
<g id="edge21" class="edge">
<title>station&#45;switch&#45;fleet&#45;&gt;station&#45;hmi&#45;fleet</title>
<path fill="none" stroke="black" d="M2615.72,-838C2646.97,-838 2680.15,-838 2711.45,-838"/>
<polygon fill="black" stroke="black" points="2711.37,-841.5 2721.37,-838 2711.37,-834.5 2711.37,-841.5"/>
<text xml:space="preserve" text-anchor="middle" x="2669.38" y="-841.2" font-family="Times New Roman,serif" font-size="14.00">OPC UA 🔒</text>
</g>
<!-- fw&#45;telecom -->
<g id="node16" class="node">
<title>fw&#45;telecom</title>
<ellipse fill="none" stroke="black" cx="2852.42" cy="-581" rx="101.47" ry="28.99"/>
<text xml:space="preserve" text-anchor="middle" x="2852.42" y="-584.2" font-family="Times New Roman,serif" font-size="14.00">Telecom Zone Firewall</text>
<text xml:space="preserve" text-anchor="middle" x="2852.42" y="-567.7" font-family="Times New Roman,serif" font-size="14.00">[firewall]</text>
</g>
<!-- fw&#45;telecom&#45;&gt;radio&#45;base&#45;stations -->
<g id="edge28" class="edge">
<title>fw&#45;telecom&#45;&gt;radio&#45;base&#45;stations</title>
<path fill="none" stroke="black" d="M2879.4,-552.86C2942.77,-484.19 3105.31,-308.06 3176.41,-231.02"/>
<polygon fill="black" stroke="black" points="3178.98,-233.4 3183.19,-223.67 3173.83,-228.65 3178.98,-233.4"/>
<text xml:space="preserve" text-anchor="middle" x="3038.1" y="-425.36" font-family="Times New Roman,serif" font-size="14.00">TLS VPN 🔒</text>
</g>
<!-- telecom&#45;router&#45;fleet -->
<g id="node18" class="node">
<title>telecom&#45;router&#45;fleet</title>
<ellipse fill="none" stroke="black" cx="2475.72" cy="-581" rx="105.18" ry="28.99"/>
<text xml:space="preserve" text-anchor="middle" x="2475.72" y="-584.2" font-family="Times New Roman,serif" font-size="14.00">Telecom Routers (Fleet)</text>
<text xml:space="preserve" text-anchor="middle" x="2475.72" y="-567.7" font-family="Times New Roman,serif" font-size="14.00">[router]</text>
</g>
<!-- telecom&#45;gateway&#45;&gt;telecom&#45;router&#45;fleet -->
<g id="edge26" class="edge">
<title>telecom&#45;gateway&#45;&gt;telecom&#45;router&#45;fleet</title>
<path fill="none" stroke="black" d="M2128.46,-681.21C2149.23,-676.38 2170.25,-669.57 2188.82,-660 2194.27,-657.19 2193.47,-653.49 2198.82,-650.5 2253.91,-619.69 2274.86,-629.42 2336.07,-614 2351.37,-610.14 2367.66,-606.16 2383.49,-602.35"/>
<polygon fill="black" stroke="black" points="2383.97,-605.84 2392.88,-600.1 2382.34,-599.03 2383.97,-605.84"/>
<text xml:space="preserve" text-anchor="middle" x="2258.44" y="-653.7" font-family="Times New Roman,serif" font-size="14.00">MPLS 🔒</text>
</g>
<!-- telecom&#45;gateway&#45;&gt;siem -->
<g id="edge39" class="edge">
<title>telecom&#45;gateway&#45;&gt;siem</title>
<path fill="none" stroke="black" d="M2136.23,-687.28C2216.82,-682.88 2310.56,-676.62 2318.07,-671 2336.31,-657.34 2318.98,-638.07 2336.07,-623 2352.03,-608.92 2372.93,-600.57 2393.64,-595.7"/>
<polygon fill="black" stroke="black" points="2394.19,-599.16 2403.27,-593.7 2392.77,-592.31 2394.19,-599.16"/>
<text xml:space="preserve" text-anchor="middle" x="2258.44" y="-686.26" font-family="Times New Roman,serif" font-size="14.00">SNMPv3 🔒</text>
</g>
<!-- telecom&#45;router&#45;fleet&#45;&gt;fw&#45;telecom -->
<g id="edge27" class="edge">
<title>telecom&#45;router&#45;fleet&#45;&gt;fw&#45;telecom</title>
<path fill="none" stroke="black" d="M2581.1,-581C2630.32,-581 2689.12,-581 2739.29,-581"/>
<polygon fill="black" stroke="black" points="2739,-584.5 2749,-581 2739,-577.5 2739,-584.5"/>
<text xml:space="preserve" text-anchor="middle" x="2669.38" y="-584.2" font-family="Times New Roman,serif" font-size="14.00">MPLS 🔒</text>
</g>
<!-- maintenance&#45;terminal -->
<g id="node20" class="node">
<title>maintenance&#45;terminal</title>
<ellipse fill="none" stroke="black" cx="1568.48" cy="-574" rx="147.61" ry="28.99"/>
<text xml:space="preserve" text-anchor="middle" x="1568.48" y="-577.2" font-family="Times New Roman,serif" font-size="14.00">Maintenance Engineering Terminal</text>
<text xml:space="preserve" text-anchor="middle" x="1568.48" y="-560.7" font-family="Times New Roman,serif" font-size="14.00">[maintenance_terminal]</text>
</g>
<!-- fw&#45;maintenance&#45;&gt;maintenance&#45;terminal -->
<g id="edge33" class="edge">
<title>fw&#45;maintenance&#45;&gt;maintenance&#45;terminal</title>
<path fill="none" stroke="black" d="M1275.57,-574C1317.26,-574 1364.91,-574 1409.44,-574"/>
<polygon fill="black" stroke="black" points="1409.18,-577.5 1419.18,-574 1409.18,-570.5 1409.18,-577.5"/>
<text xml:space="preserve" text-anchor="middle" x="1351.5" y="-577.2" font-family="Times New Roman,serif" font-size="14.00">SSH over TLS 🔒</text>
</g>
<!-- maintenance&#45;terminal&#45;&gt;kavach&#45;station&#45;fleet -->
<g id="edge35" class="edge">
<title>maintenance&#45;terminal&#45;&gt;kavach&#45;station&#45;fleet</title>
<path fill="none" stroke="black" d="M1604.06,-602.42C1654.48,-642.54 1752.49,-715.61 1846.84,-758 1865.49,-766.38 1886.01,-773.45 1906.16,-779.33"/>
<polygon fill="black" stroke="black" points="1904.93,-782.62 1915.51,-781.97 1906.84,-775.89 1904.93,-782.62"/>
<text xml:space="preserve" text-anchor="middle" x="1785.47" y="-753.64" font-family="Times New Roman,serif" font-size="14.00">SSH over TLS 🔒</text>
</g>
<!-- maintenance&#45;server -->
<g id="node21" class="node">
<title>maintenance&#45;server</title>
<ellipse fill="none" stroke="black" cx="2017.83" cy="-595" rx="109.42" ry="28.99"/>
<text xml:space="preserve" text-anchor="middle" x="2017.83" y="-598.2" font-family="Times New Roman,serif" font-size="14.00">Maintenance Data Server</text>
<text xml:space="preserve" text-anchor="middle" x="2017.83" y="-581.7" font-family="Times New Roman,serif" font-size="14.00">[server]</text>
</g>
<!-- maintenance&#45;terminal&#45;&gt;maintenance&#45;server -->
<g id="edge34" class="edge">
<title>maintenance&#45;terminal&#45;&gt;maintenance&#45;server</title>
<path fill="none" stroke="black" d="M1708.22,-583.58C1716.98,-584.09 1725.65,-584.57 1734.09,-585 1787.68,-587.74 1847.01,-589.96 1897.44,-591.61"/>
<polygon fill="black" stroke="black" points="1897.1,-595.1 1907.2,-591.92 1897.32,-588.1 1897.1,-595.1"/>
<text xml:space="preserve" text-anchor="middle" x="1785.47" y="-592.62" font-family="Times New Roman,serif" font-size="14.00">HTTPS 🔒</text>
</g>
<!-- enterprise&#45;servers -->
<g id="node22" class="node">
<title>enterprise&#45;servers</title>
<ellipse fill="none" stroke="black" cx="119.06" cy="-170" rx="97.23" ry="28.99"/>
<text xml:space="preserve" text-anchor="middle" x="119.06" y="-173.2" font-family="Times New Roman,serif" font-size="14.00">Enterprise IT Systems</text>
<text xml:space="preserve" text-anchor="middle" x="119.06" y="-156.7" font-family="Times New Roman,serif" font-size="14.00">[server]</text>
</g>
<!-- enterprise&#45;servers&#45;&gt;fw&#45;enterprise&#45;idmz -->
<g id="edge1" class="edge">
<title>enterprise&#45;servers&#45;&gt;fw&#45;enterprise&#45;idmz</title>
<path fill="none" stroke="black" d="M211.08,-160.46C244.75,-156.93 283.36,-152.88 318.93,-149.15"/>
<polygon fill="black" stroke="black" points="319.28,-152.63 328.86,-148.11 318.55,-145.67 319.28,-152.63"/>
<text xml:space="preserve" text-anchor="middle" x="272.37" y="-159.66" font-family="Times New Roman,serif" font-size="14.00">HTTPS 🔒</text>
</g>
<!-- enterprise&#45;workstations -->
<g id="node23" class="node">
<title>enterprise&#45;workstations</title>
<ellipse fill="none" stroke="black" cx="119.06" cy="-94" rx="103.06" ry="28.99"/>
<text xml:space="preserve" text-anchor="middle" x="119.06" y="-97.2" font-family="Times New Roman,serif" font-size="14.00">Enterprise Workstations</text>
<text xml:space="preserve" text-anchor="middle" x="119.06" y="-80.7" font-family="Times New Roman,serif" font-size="14.00">[workstation]</text>
</g>
<!-- enterprise&#45;workstations&#45;&gt;fw&#45;enterprise&#45;idmz -->
<g id="edge2" class="edge">
<title>enterprise&#45;workstations&#45;&gt;fw&#45;enterprise&#45;idmz</title>
<path fill="none" stroke="black" d="M212.35,-106.61C247.28,-111.38 287.4,-116.86 323.86,-121.85"/>
<polygon fill="black" stroke="black" points="323.17,-125.28 333.55,-123.17 324.11,-118.35 323.17,-125.28"/>
<text xml:space="preserve" text-anchor="middle" x="272.37" y="-121.27" font-family="Times New Roman,serif" font-size="14.00">HTTPS 🔒</text>
</g>
<!-- kms -->
<g id="node24" class="node">
<title>kms</title>
<ellipse fill="none" stroke="black" cx="2017.83" cy="-581" rx="114.2" ry="28.99"/>
<text xml:space="preserve" text-anchor="middle" x="2017.83" y="-584.2" font-family="Times New Roman,serif" font-size="14.00">Key Management Server</text>
<text xml:space="preserve" text-anchor="middle" x="2017.83" y="-567.7" font-family="Times New Roman,serif" font-size="14.00">[key_management_server]</text>
</g>
<!-- kms&#45;&gt;ccc&#45;servers -->
<g id="edge17" class="edge">
<title>kms&#45;&gt;ccc&#45;servers</title>
<path fill="none" stroke="black" d="M1903.47,-581.95C1881.89,-587.45 1861.5,-597.26 1846.84,-614 1822.2,-642.14 1864.06,-756.35 1836.84,-782 1820.22,-797.66 1750.58,-797.8 1734.09,-782 1700.05,-749.37 1745.15,-395.14 1716.09,-358 1708.85,-348.74 1699.71,-341.4 1689.56,-335.58"/>
<polygon fill="black" stroke="black" points="1691.4,-332.59 1680.9,-331.16 1688.21,-338.82 1691.4,-332.59"/>
<text xml:space="preserve" text-anchor="middle" x="1785.47" y="-797" font-family="Times New Roman,serif" font-size="14.00">HTTPS 🔒</text>
</g>
<!-- kms&#45;&gt;kavach&#45;station&#45;fleet -->
<g id="edge18" class="edge">
<title>kms&#45;&gt;kavach&#45;station&#45;fleet</title>
<path fill="none" stroke="black" d="M1905.31,-575.62C1862.92,-580.01 1818.56,-593.65 1791.95,-627.75 1776.35,-647.74 1765.63,-691.08 1846.84,-758 1859.57,-768.49 1874.49,-776.56 1890.12,-782.76"/>
<polygon fill="black" stroke="black" points="1888.46,-785.88 1899.05,-786.05 1890.88,-779.31 1888.46,-785.88"/>
<text xml:space="preserve" text-anchor="middle" x="1785.47" y="-630.95" font-family="Times New Roman,serif" font-size="14.00">HTTPS 🔒</text>
</g>
<!-- ids&#45;supervisory -->
<g id="node26" class="node">
<title>ids&#45;supervisory</title>
<ellipse fill="none" stroke="black" cx="2017.83" cy="-558" rx="75.48" ry="28.99"/>
<text xml:space="preserve" text-anchor="middle" x="2017.83" y="-561.2" font-family="Times New Roman,serif" font-size="14.00">Supervisory IDS</text>
<text xml:space="preserve" text-anchor="middle" x="2017.83" y="-544.7" font-family="Times New Roman,serif" font-size="14.00">[ids]</text>
</g>
<!-- ids&#45;supervisory&#45;&gt;siem -->
<g id="edge16" class="edge">
<title>ids&#45;supervisory&#45;&gt;siem</title>
<path fill="none" stroke="black" d="M2092.58,-563.18C2175.1,-568.97 2308.38,-578.32 2393.73,-584.32"/>
<polygon fill="black" stroke="black" points="2393.46,-587.8 2403.68,-585.01 2393.95,-580.82 2393.46,-587.8"/>
<text xml:space="preserve" text-anchor="middle" x="2258.44" y="-581.94" font-family="Times New Roman,serif" font-size="14.00">Syslog TLS 🔒</text>
</g>
<!-- ei&#45;fleet&#45;&gt;siem -->
<g id="edge38" class="edge">
<title>ei&#45;fleet&#45;&gt;siem</title>
<path fill="none" stroke="black" d="M2082.12,-688.04C2116.24,-674.24 2159.33,-657.98 2198.82,-646.5 2264.93,-627.29 2341.78,-612.12 2397.56,-602.36"/>
<polygon fill="black" stroke="black" points="2398.02,-605.83 2407.28,-600.67 2396.83,-598.93 2398.02,-605.83"/>
<text xml:space="preserve" text-anchor="middle" x="2258.44" y="-649.7" font-family="Times New Roman,serif" font-size="14.00">Syslog TLS 🔒</text>
</g>
<!-- field&#45;rtu&#45;fleet -->
<g id="node28" class="node">
<title>field&#45;rtu&#45;fleet</title>
<ellipse fill="none" stroke="black" cx="2475.72" cy="-656" rx="83.97" ry="28.99"/>
<text xml:space="preserve" text-anchor="middle" x="2475.72" y="-659.2" font-family="Times New Roman,serif" font-size="14.00">Field RTUs (Fleet)</text>
<text xml:space="preserve" text-anchor="middle" x="2475.72" y="-642.7" font-family="Times New Roman,serif" font-size="14.00">[rtu]</text>
</g>
<!-- ei&#45;fleet&#45;&gt;field&#45;rtu&#45;fleet -->
<g id="edge24" class="edge">
<title>ei&#45;fleet&#45;&gt;field&#45;rtu&#45;fleet</title>
<path fill="none" stroke="black" d="M2122.72,-692.49C2147.56,-687.67 2174.06,-682.99 2198.82,-679.5 2259.26,-670.99 2327.62,-665.14 2381.17,-661.41"/>
<polygon fill="black" stroke="black" points="2381.12,-664.92 2390.85,-660.75 2380.64,-657.94 2381.12,-664.92"/>
<text xml:space="preserve" text-anchor="middle" x="2258.44" y="-682.7" font-family="Times New Roman,serif" font-size="14.00">IEC 61850 GOOSE</text>
</g>
<!-- kavach&#45;onboard&#45;fleet -->
<g id="node30" class="node">
<title>kavach&#45;onboard&#45;fleet</title>
<ellipse fill="none" stroke="black" cx="3554.66" cy="-194" rx="127.99" ry="28.99"/>
<text xml:space="preserve" text-anchor="middle" x="3554.66" y="-197.2" font-family="Times New Roman,serif" font-size="14.00">Onboard Kavach Units (Fleet)</text>
<text xml:space="preserve" text-anchor="middle" x="3554.66" y="-180.7" font-family="Times New Roman,serif" font-size="14.00">[kavach_onboard]</text>
</g>
<!-- radio&#45;base&#45;stations&#45;&gt;kavach&#45;onboard&#45;fleet -->
<g id="edge29" class="edge">
<title>radio&#45;base&#45;stations&#45;&gt;kavach&#45;onboard&#45;fleet</title>
<path fill="none" stroke="black" d="M3328.52,-194C3356.31,-194 3386.27,-194 3414.97,-194"/>
<polygon fill="black" stroke="black" points="3414.81,-197.5 3424.81,-194 3414.81,-190.5 3414.81,-197.5"/>
<text xml:space="preserve" text-anchor="middle" x="3377.54" y="-197.2" font-family="Times New Roman,serif" font-size="14.00">RaSTA 🔒</text>
</g>
<!-- onboard&#45;hmi&#45;fleet -->
<g id="node31" class="node">
<title>onboard&#45;hmi&#45;fleet</title>
<ellipse fill="none" stroke="black" cx="3921.28" cy="-194" rx="130.64" ry="28.99"/>
<text xml:space="preserve" text-anchor="middle" x="3921.28" y="-197.2" font-family="Times New Roman,serif" font-size="14.00">Onboard DMI Displays (Fleet)</text>
<text xml:space="preserve" text-anchor="middle" x="3921.28" y="-180.7" font-family="Times New Roman,serif" font-size="14.00">[hmi]</text>
</g>
<!-- kavach&#45;onboard&#45;fleet&#45;&gt;onboard&#45;hmi&#45;fleet -->
<g id="edge31" class="edge">
<title>kavach&#45;onboard&#45;fleet&#45;&gt;onboard&#45;hmi&#45;fleet</title>
<path fill="none" stroke="black" d="M3682.93,-194C3713.99,-194 3747.4,-194 3779.06,-194"/>
<polygon fill="black" stroke="black" points="3778.67,-197.5 3788.67,-194 3778.67,-190.5 3778.67,-197.5"/>
<text xml:space="preserve" text-anchor="middle" x="3736.64" y="-197.2" font-family="Times New Roman,serif" font-size="14.00">OPC UA 🔒</text>
</g>
</g>
</svg>
