<?xml version="1.0" encoding="UTF-8" standalone="no"?>
<!DOCTYPE svg PUBLIC "-//W3C//DTD SVG 1.1//EN"
 "http://www.w3.org/Graphics/SVG/1.1/DTD/svg11.dtd">
<!-- Generated by graphviz version 14.1.5 (20260411.2331)
 -->
<!-- Title: Railway_OT Pages: 1 -->
<svg width="3315pt" height="2804pt"
 viewBox="0.00 0.00 3315.00 2804.00" xmlns="http://www.w3.org/2000/svg" xmlns:xlink="http://www.w3.org/1999/xlink">
<g id="graph0" class="graph" transform="scale(1 1) rotate(0) translate(36 2768.25)">
<title>Railway_OT</title>
<polygon fill="white" stroke="none" points="-36,36 -36,-2768.25 3278.5,-2768.25 3278.5,36 -36,36"/>
<g id="clust1" class="cluster">
<title>cluster_onboard</title>
<path fill="#8e7cc3" fill-opacity="0.133333" stroke="#8e7cc3" stroke-width="3" stroke-dasharray="5,2" d="M20,-8C20,-8 705,-8 705,-8 711,-8 717,-14 717,-20 717,-20 717,-2046.15 717,-2046.15 717,-2052.15 711,-2058.15 705,-2058.15 705,-2058.15 20,-2058.15 20,-2058.15 14,-2058.15 8,-2052.15 8,-2046.15 8,-2046.15 8,-20 8,-20 8,-14 14,-8 20,-8"/>
<text xml:space="preserve" text-anchor="middle" x="362.5" y="-2040.85" font-family="Times New Roman,serif" font-size="14.00">Onboard Domain</text>
</g>
<g id="clust2" class="cluster">
<title>cluster_0</title>
<path fill="#1f4e79" fill-opacity="0.133333" stroke="#1f4e79" d="M1145,-2459.2C1145,-2459.2 1969,-2459.2 1969,-2459.2 1975,-2459.2 1981,-2465.2 1981,-2471.2 1981,-2471.2 1981,-2712.25 1981,-2712.25 1981,-2718.25 1975,-2724.25 1969,-2724.25 1969,-2724.25 1145,-2724.25 1145,-2724.25 1139,-2724.25 1133,-2718.25 1133,-2712.25 1133,-2712.25 1133,-2471.2 1133,-2471.2 1133,-2465.2 1139,-2459.2 1145,-2459.2"/>
<text xml:space="preserve" text-anchor="middle" x="1557" y="-2703.15" font-family="Arial Bold" font-size="18.00">L5 Enterprise</text>
</g>
<g id="clust3" class="cluster">
<title>cluster_0_0</title>
<path fill="white" stroke="#d9e2f3" stroke-dasharray="5,2" d="M1169,-2483.2C1169,-2483.2 1945,-2483.2 1945,-2483.2 1951,-2483.2 1957,-2489.2 1957,-2495.2 1957,-2495.2 1957,-2652.5 1957,-2652.5 1957,-2658.5 1951,-2664.5 1945,-2664.5 1945,-2664.5 1169,-2664.5 1169,-2664.5 1163,-2664.5 1157,-2658.5 1157,-2652.5 1157,-2652.5 1157,-2495.2 1157,-2495.2 1157,-2489.2 1163,-2483.2 1169,-2483.2"/>
<text xml:space="preserve" text-anchor="middle" x="1557" y="-2649.1" font-family="Arial Bold" font-size="12.00">enterprise_it</text>
</g>
<g id="clust4" class="cluster">
<title>cluster_000</title>
<path fill="#d9e2f3" stroke="lightgray" d="M1185,-2499.2C1185,-2499.2 1929,-2499.2 1929,-2499.2 1935,-2499.2 1941,-2505.2 1941,-2511.2 1941,-2511.2 1941,-2612 1941,-2612 1941,-2618 1935,-2624 1929,-2624 1929,-2624 1185,-2624 1185,-2624 1179,-2624 1173,-2618 1173,-2612 1173,-2612 1173,-2511.2 1173,-2511.2 1173,-2505.2 1179,-2499.2 1185,-2499.2"/>
<text xml:space="preserve" text-anchor="middle" x="1557" y="-2610.5" font-family="Arial Bold" font-size="10.00">Enterprise Services</text>
</g>
<g id="clust5" class="cluster">
<title>cluster_2</title>
<path fill="#c00000" fill-opacity="0.133333" stroke="#c00000" d="M1269,-2168.4C1269,-2168.4 2381,-2168.4 2381,-2168.4 2387,-2168.4 2393,-2174.4 2393,-2180.4 2393,-2180.4 2393,-2421.45 2393,-2421.45 2393,-2427.45 2387,-2433.45 2381,-2433.45 2381,-2433.45 1269,-2433.45 1269,-2433.45 1263,-2433.45 1257,-2427.45 1257,-2421.45 1257,-2421.45 1257,-2180.4 1257,-2180.4 1257,-2174.4 1263,-2168.4 1269,-2168.4"/>
<text xml:space="preserve" text-anchor="middle" x="1825" y="-2412.35" font-family="Arial Bold" font-size="18.00">L3.5 IDMZ</text>
</g>
<g id="clust6" class="cluster">
<title>cluster_2_0</title>
<path fill="white" stroke="#f4cccc" stroke-dasharray="5,2" d="M1293,-2192.4C1293,-2192.4 2357,-2192.4 2357,-2192.4 2363,-2192.4 2369,-2198.4 2369,-2204.4 2369,-2204.4 2369,-2361.7 2369,-2361.7 2369,-2367.7 2363,-2373.7 2357,-2373.7 2357,-2373.7 1293,-2373.7 1293,-2373.7 1287,-2373.7 1281,-2367.7 1281,-2361.7 1281,-2361.7 1281,-2204.4 1281,-2204.4 1281,-2198.4 1287,-2192.4 1293,-2192.4"/>
<text xml:space="preserve" text-anchor="middle" x="1825" y="-2358.3" font-family="Arial Bold" font-size="12.00">idmz</text>
</g>
<g id="clust7" class="cluster">
<title>cluster_200</title>
<path fill="#eeeeee" stroke="lightgray" d="M1309,-2208.4C1309,-2208.4 2341,-2208.4 2341,-2208.4 2347,-2208.4 2353,-2214.4 2353,-2220.4 2353,-2220.4 2353,-2321.2 2353,-2321.2 2353,-2327.2 2347,-2333.2 2341,-2333.2 2341,-2333.2 1309,-2333.2 1309,-2333.2 1303,-2333.2 1297,-2327.2 1297,-2321.2 1297,-2321.2 1297,-2220.4 1297,-2220.4 1297,-2214.4 1303,-2208.4 1309,-2208.4"/>
<text xml:space="preserve" text-anchor="middle" x="1825" y="-2319.7" font-family="Arial Bold" font-size="10.00">External Security Services</text>
</g>
<g id="clust8" class="cluster">
<title>cluster_3</title>
<path fill="#e06666" fill-opacity="0.133333" stroke="#e06666" d="M1269,-1886.35C1269,-1886.35 2927,-1886.35 2927,-1886.35 2933,-1886.35 2939,-1892.35 2939,-1898.35 2939,-1898.35 2939,-2139.4 2939,-2139.4 2939,-2145.4 2933,-2151.4 2927,-2151.4 2927,-2151.4 1269,-2151.4 1269,-2151.4 1263,-2151.4 1257,-2145.4 1257,-2139.4 1257,-2139.4 1257,-1898.35 1257,-1898.35 1257,-1892.35 1263,-1886.35 1269,-1886.35"/>
<text xml:space="preserve" text-anchor="middle" x="2098" y="-2130.3" font-family="Arial Bold" font-size="18.00">L3.5 Security</text>
</g>
<g id="clust9" class="cluster">
<title>cluster_3_0</title>
<path fill="white" stroke="#e6b8af" stroke-dasharray="5,2" d="M1293,-1910.35C1293,-1910.35 1493,-1910.35 1493,-1910.35 1499,-1910.35 1505,-1916.35 1505,-1922.35 1505,-1922.35 1505,-2079.65 1505,-2079.65 1505,-2085.65 1499,-2091.65 1493,-2091.65 1493,-2091.65 1293,-2091.65 1293,-2091.65 1287,-2091.65 1281,-2085.65 1281,-2079.65 1281,-2079.65 1281,-1922.35 1281,-1922.35 1281,-1916.35 1287,-1910.35 1293,-1910.35"/>
<text xml:space="preserve" text-anchor="middle" x="1393" y="-2076.25" font-family="Arial Bold" font-size="12.00">external_security</text>
</g>
<g id="clust10" class="cluster">
<title>cluster_300</title>
<path fill="#eeeeee" stroke="lightgray" d="M1309,-1926.35C1309,-1926.35 1477,-1926.35 1477,-1926.35 1483,-1926.35 1489,-1932.35 1489,-1938.35 1489,-1938.35 1489,-2039.15 1489,-2039.15 1489,-2045.15 1483,-2051.15 1477,-2051.15 1477,-2051.15 1309,-2051.15 1309,-2051.15 1303,-2051.15 1297,-2045.15 1297,-2039.15 1297,-2039.15 1297,-1938.35 1297,-1938.35 1297,-1932.35 1303,-1926.35 1309,-1926.35"/>
<text xml:space="preserve" text-anchor="middle" x="1393" y="-2037.65" font-family="Arial Bold" font-size="10.00">External Security Services</text>
</g>
<g id="clust11" class="cluster">
<title>cluster_3_1</title>
<path fill="white" stroke="#ea9999" stroke-dasharray="5,2" d="M1541,-1910.35C1541,-1910.35 2903,-1910.35 2903,-1910.35 2909,-1910.35 2915,-1916.35 2915,-1922.35 2915,-1922.35 2915,-2079.65 2915,-2079.65 2915,-2085.65 2909,-2091.65 2903,-2091.65 2903,-2091.65 1541,-2091.65 1541,-2091.65 1535,-2091.65 1529,-2085.65 1529,-2079.65 1529,-2079.65 1529,-1922.35 1529,-1922.35 1529,-1916.35 1535,-1910.35 1541,-1910.35"/>
<text xml:space="preserve" text-anchor="middle" x="2222" y="-2076.25" font-family="Arial Bold" font-size="12.00">security_management</text>
</g>
<g id="clust12" class="cluster">
<title>cluster_310</title>
<path fill="#eeeeee" stroke="lightgray" d="M1557,-1926.35C1557,-1926.35 2887,-1926.35 2887,-1926.35 2893,-1926.35 2899,-1932.35 2899,-1938.35 2899,-1938.35 2899,-2039.15 2899,-2039.15 2899,-2045.15 2893,-2051.15 2887,-2051.15 2887,-2051.15 1557,-2051.15 1557,-2051.15 1551,-2051.15 1545,-2045.15 1545,-2039.15 1545,-2039.15 1545,-1938.35 1545,-1938.35 1545,-1932.35 1551,-1926.35 1557,-1926.35"/>
<text xml:space="preserve" text-anchor="middle" x="2222" y="-2037.65" font-family="Arial Bold" font-size="10.00">Security Management</text>
</g>
<g id="clust13" class="cluster">
<title>cluster_4</title>
<path fill="#6aa84f" fill-opacity="0.133333" stroke="#6aa84f" d="M1269,-1595.55C1269,-1595.55 2560,-1595.55 2560,-1595.55 2566,-1595.55 2572,-1601.55 2572,-1607.55 2572,-1607.55 2572,-1848.6 2572,-1848.6 2572,-1854.6 2566,-1860.6 2560,-1860.6 2560,-1860.6 1269,-1860.6 1269,-1860.6 1263,-1860.6 1257,-1854.6 1257,-1848.6 1257,-1848.6 1257,-1607.55 1257,-1607.55 1257,-1601.55 1263,-1595.55 1269,-1595.55"/>
<text xml:space="preserve" text-anchor="middle" x="1914.5" y="-1839.5" font-family="Arial Bold" font-size="18.00">L3 Operations</text>
</g>
<g id="clust14" class="cluster">
<title>cluster_4_0</title>
<path fill="white" stroke="#d9ead3" stroke-dasharray="5,2" d="M1293,-1619.55C1293,-1619.55 2536,-1619.55 2536,-1619.55 2542,-1619.55 2548,-1625.55 2548,-1631.55 2548,-1631.55 2548,-1788.85 2548,-1788.85 2548,-1794.85 2542,-1800.85 2536,-1800.85 2536,-1800.85 1293,-1800.85 1293,-1800.85 1287,-1800.85 1281,-1794.85 1281,-1788.85 1281,-1788.85 1281,-1631.55 1281,-1631.55 1281,-1625.55 1287,-1619.55 1293,-1619.55"/>
<text xml:space="preserve" text-anchor="middle" x="1914.5" y="-1785.45" font-family="Arial Bold" font-size="12.00">operations</text>
</g>
<g id="clust15" class="cluster">
<title>cluster_400</title>
<path fill="#bdd7ee" stroke="lightgray" d="M1309,-1635.55C1309,-1635.55 2520,-1635.55 2520,-1635.55 2526,-1635.55 2532,-1641.55 2532,-1647.55 2532,-1647.55 2532,-1748.35 2532,-1748.35 2532,-1754.35 2526,-1760.35 2520,-1760.35 2520,-1760.35 1309,-1760.35 1309,-1760.35 1303,-1760.35 1297,-1754.35 1297,-1748.35 1297,-1748.35 1297,-1647.55 1297,-1647.55 1297,-1641.55 1303,-1635.55 1309,-1635.55"/>
<text xml:space="preserve" text-anchor="middle" x="1914.5" y="-1746.85" font-family="Arial Bold" font-size="10.00">Operations Management</text>
</g>
<g id="clust16" class="cluster">
<title>cluster_5</title>
<path fill="#3d85c6" fill-opacity="0.133333" stroke="#3d85c6" d="M1269,-1304.75C1269,-1304.75 1805,-1304.75 1805,-1304.75 1811,-1304.75 1817,-1310.75 1817,-1316.75 1817,-1316.75 1817,-1557.8 1817,-1557.8 1817,-1563.8 1811,-1569.8 1805,-1569.8 1805,-1569.8 1269,-1569.8 1269,-1569.8 1263,-1569.8 1257,-1563.8 1257,-1557.8 1257,-1557.8 1257,-1316.75 1257,-1316.75 1257,-1310.75 1263,-1304.75 1269,-1304.75"/>
<text xml:space="preserve" text-anchor="middle" x="1537" y="-1548.7" font-family="Arial Bold" font-size="18.00">L2 Telecom</text>
</g>
<g id="clust17" class="cluster">
<title>cluster_5_0</title>
<path fill="white" stroke="#cfe2f3" stroke-dasharray="5,2" d="M1293,-1328.75C1293,-1328.75 1781,-1328.75 1781,-1328.75 1787,-1328.75 1793,-1334.75 1793,-1340.75 1793,-1340.75 1793,-1498.05 1793,-1498.05 1793,-1504.05 1787,-1510.05 1781,-1510.05 1781,-1510.05 1293,-1510.05 1293,-1510.05 1287,-1510.05 1281,-1504.05 1281,-1498.05 1281,-1498.05 1281,-1340.75 1281,-1340.75 1281,-1334.75 1287,-1328.75 1293,-1328.75"/>
<text xml:space="preserve" text-anchor="middle" x="1537" y="-1494.65" font-family="Arial Bold" font-size="12.00">telecom_core</text>
</g>
<g id="clust18" class="cluster">
<title>cluster_500</title>
<path fill="#eeeeee" stroke="lightgray" d="M1309,-1344.75C1309,-1344.75 1765,-1344.75 1765,-1344.75 1771,-1344.75 1777,-1350.75 1777,-1356.75 1777,-1356.75 1777,-1457.55 1777,-1457.55 1777,-1463.55 1771,-1469.55 1765,-1469.55 1765,-1469.55 1309,-1469.55 1309,-1469.55 1303,-1469.55 1297,-1463.55 1297,-1457.55 1297,-1457.55 1297,-1356.75 1297,-1356.75 1297,-1350.75 1303,-1344.75 1309,-1344.75"/>
<text xml:space="preserve" text-anchor="middle" x="1537" y="-1456.05" font-family="Arial Bold" font-size="10.00">Telecom Network</text>
</g>
<g id="clust19" class="cluster">
<title>cluster_6</title>
<path fill="#6fa8dc" fill-opacity="0.133333" stroke="#6fa8dc" d="M981,-1013.95C981,-1013.95 1517,-1013.95 1517,-1013.95 1523,-1013.95 1529,-1019.95 1529,-1025.95 1529,-1025.95 1529,-1267 1529,-1267 1529,-1273 1523,-1279 1517,-1279 1517,-1279 981,-1279 981,-1279 975,-1279 969,-1273 969,-1267 969,-1267 969,-1025.95 969,-1025.95 969,-1019.95 975,-1013.95 981,-1013.95"/>
<text xml:space="preserve" text-anchor="middle" x="1249" y="-1257.9" font-family="Arial Bold" font-size="18.00">L1 Telecom</text>
</g>
<g id="clust20" class="cluster">
<title>cluster_6_0</title>
<path fill="white" stroke="#9fc5e8" stroke-dasharray="5,2" d="M1005,-1037.95C1005,-1037.95 1493,-1037.95 1493,-1037.95 1499,-1037.95 1505,-1043.95 1505,-1049.95 1505,-1049.95 1505,-1207.25 1505,-1207.25 1505,-1213.25 1499,-1219.25 1493,-1219.25 1493,-1219.25 1005,-1219.25 1005,-1219.25 999,-1219.25 993,-1213.25 993,-1207.25 993,-1207.25 993,-1049.95 993,-1049.95 993,-1043.95 999,-1037.95 1005,-1037.95"/>
<text xml:space="preserve" text-anchor="middle" x="1249" y="-1203.85" font-family="Arial Bold" font-size="12.00">radio_access</text>
</g>
<g id="clust21" class="cluster">
<title>cluster_600</title>
<path fill="#d9b3ff" stroke="lightgray" d="M1021,-1053.95C1021,-1053.95 1477,-1053.95 1477,-1053.95 1483,-1053.95 1489,-1059.95 1489,-1065.95 1489,-1065.95 1489,-1166.75 1489,-1166.75 1489,-1172.75 1483,-1178.75 1477,-1178.75 1477,-1178.75 1021,-1178.75 1021,-1178.75 1015,-1178.75 1009,-1172.75 1009,-1166.75 1009,-1166.75 1009,-1065.95 1009,-1065.95 1009,-1059.95 1015,-1053.95 1021,-1053.95"/>
<text xml:space="preserve" text-anchor="middle" x="1249" y="-1165.25" font-family="Arial Bold" font-size="10.00">Radio Communication</text>
</g>
<g id="clust22" class="cluster">
<title>cluster_7</title>
<path fill="#f1c232" fill-opacity="0.133333" stroke="#f1c232" d="M932,-723.15C932,-723.15 1517,-723.15 1517,-723.15 1523,-723.15 1529,-729.15 1529,-735.15 1529,-735.15 1529,-976.2 1529,-976.2 1529,-982.2 1523,-988.2 1517,-988.2 1517,-988.2 932,-988.2 932,-988.2 926,-988.2 920,-982.2 920,-976.2 920,-976.2 920,-735.15 920,-735.15 920,-729.15 926,-723.15 932,-723.15"/>
<text xml:space="preserve" text-anchor="middle" x="1224.5" y="-967.1" font-family="Arial Bold" font-size="18.00">L2 Interlocking</text>
</g>
<g id="clust23" class="cluster">
<title>cluster_7_0</title>
<path fill="white" stroke="#ffe599" stroke-dasharray="5,2" d="M956,-747.15C956,-747.15 1493,-747.15 1493,-747.15 1499,-747.15 1505,-753.15 1505,-759.15 1505,-759.15 1505,-916.45 1505,-916.45 1505,-922.45 1499,-928.45 1493,-928.45 1493,-928.45 956,-928.45 956,-928.45 950,-928.45 944,-922.45 944,-916.45 944,-916.45 944,-759.15 944,-759.15 944,-753.15 950,-747.15 956,-747.15"/>
<text xml:space="preserve" text-anchor="middle" x="1224.5" y="-913.05" font-family="Arial Bold" font-size="12.00">interlocking</text>
</g>
<g id="clust24" class="cluster">
<title>cluster_700</title>
<path fill="#ea9999" stroke="lightgray" d="M972,-763.15C972,-763.15 1477,-763.15 1477,-763.15 1483,-763.15 1489,-769.15 1489,-775.15 1489,-775.15 1489,-875.95 1489,-875.95 1489,-881.95 1483,-887.95 1477,-887.95 1477,-887.95 972,-887.95 972,-887.95 966,-887.95 960,-881.95 960,-875.95 960,-875.95 960,-775.15 960,-775.15 960,-769.15 966,-763.15 972,-763.15"/>
<text xml:space="preserve" text-anchor="middle" x="1224.5" y="-874.45" font-family="Arial Bold" font-size="10.00">Interlocking Core</text>
</g>
<g id="clust25" class="cluster">
<title>cluster_8</title>
<path fill="#ffd966" fill-opacity="0.133333" stroke="#ffd966" d="M1269,-432.35C1269,-432.35 1805,-432.35 1805,-432.35 1811,-432.35 1817,-438.35 1817,-444.35 1817,-444.35 1817,-685.4 1817,-685.4 1817,-691.4 1811,-697.4 1805,-697.4 1805,-697.4 1269,-697.4 1269,-697.4 1263,-697.4 1257,-691.4 1257,-685.4 1257,-685.4 1257,-444.35 1257,-444.35 1257,-438.35 1263,-432.35 1269,-432.35"/>
<text xml:space="preserve" text-anchor="middle" x="1537" y="-676.3" font-family="Arial Bold" font-size="18.00">L1 Interlocking</text>
</g>
<g id="clust26" class="cluster">
<title>cluster_8_0</title>
<path fill="white" stroke="#ffe599" stroke-dasharray="5,2" d="M1293,-456.35C1293,-456.35 1781,-456.35 1781,-456.35 1787,-456.35 1793,-462.35 1793,-468.35 1793,-468.35 1793,-625.65 1793,-625.65 1793,-631.65 1787,-637.65 1781,-637.65 1781,-637.65 1293,-637.65 1293,-637.65 1287,-637.65 1281,-631.65 1281,-625.65 1281,-625.65 1281,-468.35 1281,-468.35 1281,-462.35 1287,-456.35 1293,-456.35"/>
<text xml:space="preserve" text-anchor="middle" x="1537" y="-622.25" font-family="Arial Bold" font-size="12.00">interlocking</text>
</g>
<g id="clust27" class="cluster">
<title>cluster_800</title>
<path fill="#ea9999" stroke="lightgray" d="M1309,-472.35C1309,-472.35 1765,-472.35 1765,-472.35 1771,-472.35 1777,-478.35 1777,-484.35 1777,-484.35 1777,-585.15 1777,-585.15 1777,-591.15 1771,-597.15 1765,-597.15 1765,-597.15 1309,-597.15 1309,-597.15 1303,-597.15 1297,-591.15 1297,-585.15 1297,-585.15 1297,-484.35 1297,-484.35 1297,-478.35 1303,-472.35 1309,-472.35"/>
<text xml:space="preserve" text-anchor="middle" x="1537" y="-583.65" font-family="Arial Bold" font-size="10.00">Interlocking Core</text>
</g>
<g id="clust28" class="cluster">
<title>cluster_9</title>
<path fill="#f6b26b" fill-opacity="0.133333" stroke="#f6b26b" d="M1269,-141.55C1269,-141.55 2669,-141.55 2669,-141.55 2675,-141.55 2681,-147.55 2681,-153.55 2681,-153.55 2681,-394.6 2681,-394.6 2681,-400.6 2675,-406.6 2669,-406.6 2669,-406.6 1269,-406.6 1269,-406.6 1263,-406.6 1257,-400.6 1257,-394.6 1257,-394.6 1257,-153.55 1257,-153.55 1257,-147.55 1263,-141.55 1269,-141.55"/>
<text xml:space="preserve" text-anchor="middle" x="1969" y="-385.5" font-family="Arial Bold" font-size="18.00">L0 Field</text>
</g>
<g id="clust29" class="cluster">
<title>cluster_9_0</title>
<path fill="white" stroke="#f9cb9c" stroke-dasharray="5,2" d="M1293,-165.55C1293,-165.55 2645,-165.55 2645,-165.55 2651,-165.55 2657,-171.55 2657,-177.55 2657,-177.55 2657,-334.85 2657,-334.85 2657,-340.85 2651,-346.85 2645,-346.85 2645,-346.85 1293,-346.85 1293,-346.85 1287,-346.85 1281,-340.85 1281,-334.85 1281,-334.85 1281,-177.55 1281,-177.55 1281,-171.55 1287,-165.55 1293,-165.55"/>
<text xml:space="preserve" text-anchor="middle" x="1969" y="-331.45" font-family="Arial Bold" font-size="12.00">field</text>
</g>
<g id="clust30" class="cluster">
<title>cluster_900</title>
<path fill="#eeeeee" stroke="lightgray" d="M1309,-181.55C1309,-181.55 2629,-181.55 2629,-181.55 2635,-181.55 2641,-187.55 2641,-193.55 2641,-193.55 2641,-294.35 2641,-294.35 2641,-300.35 2635,-306.35 2629,-306.35 2629,-306.35 1309,-306.35 1309,-306.35 1303,-306.35 1297,-300.35 1297,-294.35 1297,-294.35 1297,-193.55 1297,-193.55 1297,-187.55 1303,-181.55 1309,-181.55"/>
<text xml:space="preserve" text-anchor="middle" x="1969" y="-292.85" font-family="Arial Bold" font-size="10.00">Field Equipment</text>
</g>
<!-- brake_interface_unit -->
<g id="node1" class="node">
<title>brake_interface_unit</title>
<path fill="#8e7cc3" stroke="#cc0000" stroke-width="2" d="M176.4,-1419.55C176.4,-1419.55 27.6,-1419.55 27.6,-1419.55 21.6,-1419.55 15.6,-1413.55 15.6,-1407.55 15.6,-1407.55 15.6,-1366.75 15.6,-1366.75 15.6,-1360.75 21.6,-1354.75 27.6,-1354.75 27.6,-1354.75 176.4,-1354.75 176.4,-1354.75 182.4,-1354.75 188.4,-1360.75 188.4,-1366.75 188.4,-1366.75 188.4,-1407.55 188.4,-1407.55 188.4,-1413.55 182.4,-1419.55 176.4,-1419.55"/>
<text xml:space="preserve" text-anchor="middle" x="102" y="-1389.65" font-family="Arial" font-size="10.00">Brake Interface Unit</text>
<text xml:space="preserve" text-anchor="middle" x="102" y="-1377.65" font-family="Arial" font-size="10.00">[brake_interface_unit]</text>
</g>
<!-- driver_machine_interface -->
<g id="node2" class="node">
<title>driver_machine_interface</title>
<path fill="#8e7cc3" stroke="#cc0000" stroke-width="2" d="M407.4,-1419.55C407.4,-1419.55 258.6,-1419.55 258.6,-1419.55 252.6,-1419.55 246.6,-1413.55 246.6,-1407.55 246.6,-1407.55 246.6,-1366.75 246.6,-1366.75 246.6,-1360.75 252.6,-1354.75 258.6,-1354.75 258.6,-1354.75 407.4,-1354.75 407.4,-1354.75 413.4,-1354.75 419.4,-1360.75 419.4,-1366.75 419.4,-1366.75 419.4,-1407.55 419.4,-1407.55 419.4,-1413.55 413.4,-1419.55 407.4,-1419.55"/>
<text xml:space="preserve" text-anchor="middle" x="333" y="-1389.65" font-family="Arial" font-size="10.00">Driver Machine Interface</text>
<text xml:space="preserve" text-anchor="middle" x="333" y="-1377.65" font-family="Arial" font-size="10.00">[driver_machine_interface]</text>
</g>
<!-- l_kavach -->
<g id="node3" class="node">
<title>l_kavach</title>
<path fill="#8e7cc3" stroke="#cc0000" stroke-width="2" d="M604.4,-1710.35C604.4,-1710.35 455.6,-1710.35 455.6,-1710.35 449.6,-1710.35 443.6,-1704.35 443.6,-1698.35 443.6,-1698.35 443.6,-1657.55 443.6,-1657.55 443.6,-1651.55 449.6,-1645.55 455.6,-1645.55 455.6,-1645.55 604.4,-1645.55 604.4,-1645.55 610.4,-1645.55 616.4,-1651.55 616.4,-1657.55 616.4,-1657.55 616.4,-1698.35 616.4,-1698.35 616.4,-1704.35 610.4,-1710.35 604.4,-1710.35"/>
<text xml:space="preserve" text-anchor="middle" x="530" y="-1680.45" font-family="Arial" font-size="10.00">Locomotive Kavach</text>
<text xml:space="preserve" text-anchor="middle" x="530" y="-1668.45" font-family="Arial" font-size="10.00">[l_kavach]</text>
</g>
<!-- l_kavach&#45;&gt;brake_interface_unit -->
<g id="edge56" class="edge">
<title>l_kavach&#45;&gt;brake_interface_unit</title>
<path fill="none" stroke="#cc0000" stroke-width="2.5" d="M442.61,-1678C317.43,-1678 102,-1678 102,-1678 102,-1678 102,-1432.3 102,-1432.3"/>
<polygon fill="#cc0000" stroke="#cc0000" stroke-width="2.5" points="104.8,-1432.3 102,-1424.3 99.2,-1432.3 104.8,-1432.3"/>
<text xml:space="preserve" text-anchor="middle" x="186.5" y="-1579.95" font-family="Arial" font-size="8.00">MVB | UNENC | SAFE</text>
</g>
<!-- l_kavach&#45;&gt;driver_machine_interface -->
<g id="edge55" class="edge">
<title>l_kavach&#45;&gt;driver_machine_interface</title>
<path fill="none" stroke="#cc0000" stroke-width="2.5" d="M474.6,-1644.57C474.6,-1568.15 474.6,-1387 474.6,-1387 474.6,-1387 432.04,-1387 432.04,-1387"/>
<polygon fill="#cc0000" stroke="#cc0000" stroke-width="2.5" points="432.04,-1384.2 424.04,-1387 432.04,-1389.8 432.04,-1384.2"/>
<text xml:space="preserve" text-anchor="middle" x="402.5" y="-1579.95" font-family="Arial" font-size="8.00">MVB | UNENC | SAFE</text>
</g>
<!-- train_radio -->
<g id="node6" class="node">
<title>train_radio</title>
<path fill="#8e7cc3" stroke="#222222" stroke-width="2" d="M697.4,-1419.55C697.4,-1419.55 548.6,-1419.55 548.6,-1419.55 542.6,-1419.55 536.6,-1413.55 536.6,-1407.55 536.6,-1407.55 536.6,-1366.75 536.6,-1366.75 536.6,-1360.75 542.6,-1354.75 548.6,-1354.75 548.6,-1354.75 697.4,-1354.75 697.4,-1354.75 703.4,-1354.75 709.4,-1360.75 709.4,-1366.75 709.4,-1366.75 709.4,-1407.55 709.4,-1407.55 709.4,-1413.55 703.4,-1419.55 697.4,-1419.55"/>
<text xml:space="preserve" text-anchor="middle" x="623" y="-1389.65" font-family="Arial" font-size="10.00">Train Radio</text>
<text xml:space="preserve" text-anchor="middle" x="623" y="-1377.65" font-family="Arial" font-size="10.00">[train_radio]</text>
</g>
<!-- l_kavach&#45;&gt;train_radio -->
<g id="edge54" class="edge">
<title>l_kavach&#45;&gt;train_radio</title>
<path fill="none" stroke="#cc0000" stroke-width="2.5" d="M576.5,-1644.59C576.5,-1644.59 576.5,-1431.9 576.5,-1431.9"/>
<polygon fill="#cc0000" stroke="#cc0000" stroke-width="2.5" points="579.3,-1431.9 576.5,-1423.9 573.7,-1431.9 579.3,-1431.9"/>
<text xml:space="preserve" text-anchor="middle" x="623.5" y="-1579.95" font-family="Arial" font-size="8.00">MVB | UNENC | SAFE</text>
</g>
<!-- s_kavach -->
<g id="node30" class="node">
<title>s_kavach</title>
<path fill="#f1c232" stroke="#cc0000" stroke-width="2" d="M1130.4,-837.95C1130.4,-837.95 981.6,-837.95 981.6,-837.95 975.6,-837.95 969.6,-831.95 969.6,-825.95 969.6,-825.95 969.6,-785.15 969.6,-785.15 969.6,-779.15 975.6,-773.15 981.6,-773.15 981.6,-773.15 1130.4,-773.15 1130.4,-773.15 1136.4,-773.15 1142.4,-779.15 1142.4,-785.15 1142.4,-785.15 1142.4,-825.95 1142.4,-825.95 1142.4,-831.95 1136.4,-837.95 1130.4,-837.95"/>
<text xml:space="preserve" text-anchor="middle" x="1056" y="-808.05" font-family="Arial" font-size="10.00">Stationary Kavach</text>
<text xml:space="preserve" text-anchor="middle" x="1056" y="-796.05" font-family="Arial" font-size="10.00">[s_kavach]</text>
</g>
<!-- l_kavach&#45;&gt;s_kavach -->
<g id="edge53" class="edge">
<title>l_kavach&#45;&gt;s_kavach</title>
<path fill="none" stroke="#cc0000" stroke-width="2.5" d="M617.18,-1678C747.87,-1678 979.4,-1678 979.4,-1678 979.4,-1678 979.4,-850.47 979.4,-850.47"/>
<polygon fill="#cc0000" stroke="#cc0000" stroke-width="2.5" points="982.2,-850.47 979.4,-842.47 976.6,-850.47 982.2,-850.47"/>
<text xml:space="preserve" text-anchor="middle" x="845" y="-1289.15" font-family="Arial" font-size="8.00">MCOMM | UNENC | SAFE</text>
</g>
<!-- onboard_rfid_reader -->
<g id="node4" class="node">
<title>onboard_rfid_reader</title>
<path fill="#8e7cc3" stroke="#222222" stroke-width="2" d="M587.4,-80.8C587.4,-80.8 438.6,-80.8 438.6,-80.8 432.6,-80.8 426.6,-74.8 426.6,-68.8 426.6,-68.8 426.6,-28 426.6,-28 426.6,-22 432.6,-16 438.6,-16 438.6,-16 587.4,-16 587.4,-16 593.4,-16 599.4,-22 599.4,-28 599.4,-28 599.4,-68.8 599.4,-68.8 599.4,-74.8 593.4,-80.8 587.4,-80.8"/>
<text xml:space="preserve" text-anchor="middle" x="513" y="-50.9" font-family="Arial" font-size="10.00">Onboard RFID Reader</text>
<text xml:space="preserve" text-anchor="middle" x="513" y="-38.9" font-family="Arial" font-size="10.00">[onboard_rfid_reader]</text>
</g>
<!-- onboard_rfid_reader&#45;&gt;l_kavach -->
<g id="edge58" class="edge">
<title>onboard_rfid_reader&#45;&gt;l_kavach</title>
<path fill="none" stroke="#7a3db8" stroke-width="2.5" stroke-dasharray="5,2" d="M505.6,-81.69C505.6,-81.69 505.6,-1632.93 505.6,-1632.93"/>
<polygon fill="#7a3db8" stroke="#7a3db8" stroke-width="2.5" points="502.8,-1632.93 505.6,-1640.93 508.4,-1632.93 502.8,-1632.93"/>
<text xml:space="preserve" text-anchor="middle" x="518.5" y="-802.82" font-family="Arial" font-size="8.00">MVB | UNENC | SAFE</text>
</g>
<!-- speed_sensor -->
<g id="node5" class="node">
<title>speed_sensor</title>
<path fill="#8e7cc3" stroke="#cc0000" stroke-width="2" d="M604.4,-2001.15C604.4,-2001.15 455.6,-2001.15 455.6,-2001.15 449.6,-2001.15 443.6,-1995.15 443.6,-1989.15 443.6,-1989.15 443.6,-1948.35 443.6,-1948.35 443.6,-1942.35 449.6,-1936.35 455.6,-1936.35 455.6,-1936.35 604.4,-1936.35 604.4,-1936.35 610.4,-1936.35 616.4,-1942.35 616.4,-1948.35 616.4,-1948.35 616.4,-1989.15 616.4,-1989.15 616.4,-1995.15 610.4,-2001.15 604.4,-2001.15"/>
<text xml:space="preserve" text-anchor="middle" x="530" y="-1971.25" font-family="Arial" font-size="10.00">Speed Sensor</text>
<text xml:space="preserve" text-anchor="middle" x="530" y="-1959.25" font-family="Arial" font-size="10.00">[speed_sensor]</text>
</g>
<!-- speed_sensor&#45;&gt;l_kavach -->
<g id="edge57" class="edge">
<title>speed_sensor&#45;&gt;l_kavach</title>
<path fill="none" stroke="#cc0000" stroke-width="2.5" d="M530,-1935.39C530,-1935.39 530,-1722.7 530,-1722.7"/>
<polygon fill="#cc0000" stroke="#cc0000" stroke-width="2.5" points="532.8,-1722.7 530,-1714.7 527.2,-1722.7 532.8,-1722.7"/>
<text xml:space="preserve" text-anchor="middle" x="570.5" y="-1870.75" font-family="Arial" font-size="8.00">MVB | UNENC | SAFE</text>
</g>
<!-- radio_base_station -->
<g id="node28" class="node">
<title>radio_base_station</title>
<path fill="#6fa8dc" stroke="#222222" stroke-width="2" d="M1179.4,-1128.75C1179.4,-1128.75 1030.6,-1128.75 1030.6,-1128.75 1024.6,-1128.75 1018.6,-1122.75 1018.6,-1116.75 1018.6,-1116.75 1018.6,-1075.95 1018.6,-1075.95 1018.6,-1069.95 1024.6,-1063.95 1030.6,-1063.95 1030.6,-1063.95 1179.4,-1063.95 1179.4,-1063.95 1185.4,-1063.95 1191.4,-1069.95 1191.4,-1075.95 1191.4,-1075.95 1191.4,-1116.75 1191.4,-1116.75 1191.4,-1122.75 1185.4,-1128.75 1179.4,-1128.75"/>
<text xml:space="preserve" text-anchor="middle" x="1105" y="-1098.85" font-family="Arial" font-size="10.00">Railway Radio Base Station</text>
<text xml:space="preserve" text-anchor="middle" x="1105" y="-1086.85" font-family="Arial" font-size="10.00">[railway_radio_base_station]</text>
</g>
<!-- train_radio&#45;&gt;radio_base_station -->
<g id="edge52" class="edge">
<title>train_radio&#45;&gt;radio_base_station</title>
<path fill="none" stroke="#7a3db8" stroke-width="2.5" stroke-dasharray="5,2" d="M654.4,-1353.75C654.4,-1277.28 654.4,-1096 654.4,-1096 654.4,-1096 1006.07,-1096 1006.07,-1096"/>
<polygon fill="#7a3db8" stroke="#7a3db8" stroke-width="2.5" points="1006.07,-1098.8 1014.07,-1096 1006.07,-1093.2 1006.07,-1098.8"/>
<text xml:space="preserve" text-anchor="middle" x="1118" y="-1289.15" font-family="Arial" font-size="8.00">MCOMM | UNENC | SAFE</text>
</g>
<!-- ent_email_server -->
<g id="node7" class="node">
<title>ent_email_server</title>
<path fill="#1f4e79" stroke="#222222" stroke-width="2" d="M1343.4,-2574C1343.4,-2574 1194.6,-2574 1194.6,-2574 1188.6,-2574 1182.6,-2568 1182.6,-2562 1182.6,-2562 1182.6,-2521.2 1182.6,-2521.2 1182.6,-2515.2 1188.6,-2509.2 1194.6,-2509.2 1194.6,-2509.2 1343.4,-2509.2 1343.4,-2509.2 1349.4,-2509.2 1355.4,-2515.2 1355.4,-2521.2 1355.4,-2521.2 1355.4,-2562 1355.4,-2562 1355.4,-2568 1349.4,-2574 1343.4,-2574"/>
<text xml:space="preserve" text-anchor="middle" x="1269" y="-2544.1" font-family="Arial" font-size="10.00">Corporate Email Server</text>
<text xml:space="preserve" text-anchor="middle" x="1269" y="-2532.1" font-family="Arial" font-size="10.00">[enterprise_server]</text>
</g>
<!-- ent_eam_server -->
<g id="node8" class="node">
<title>ent_eam_server</title>
<path fill="#1f4e79" stroke="#222222" stroke-width="2" d="M1631.4,-2574C1631.4,-2574 1482.6,-2574 1482.6,-2574 1476.6,-2574 1470.6,-2568 1470.6,-2562 1470.6,-2562 1470.6,-2521.2 1470.6,-2521.2 1470.6,-2515.2 1476.6,-2509.2 1482.6,-2509.2 1482.6,-2509.2 1631.4,-2509.2 1631.4,-2509.2 1637.4,-2509.2 1643.4,-2515.2 1643.4,-2521.2 1643.4,-2521.2 1643.4,-2562 1643.4,-2562 1643.4,-2568 1637.4,-2574 1631.4,-2574"/>
<text xml:space="preserve" text-anchor="middle" x="1557" y="-2544.1" font-family="Arial" font-size="10.00">Enterprise Asset Management</text>
<text xml:space="preserve" text-anchor="middle" x="1557" y="-2532.1" font-family="Arial" font-size="10.00">[enterprise_server]</text>
</g>
<!-- ent_email_server&#45;&gt;ent_eam_server -->
<!-- ent_erp_server -->
<g id="node9" class="node">
<title>ent_erp_server</title>
<path fill="#1f4e79" stroke="#222222" stroke-width="2" d="M1919.4,-2574C1919.4,-2574 1770.6,-2574 1770.6,-2574 1764.6,-2574 1758.6,-2568 1758.6,-2562 1758.6,-2562 1758.6,-2521.2 1758.6,-2521.2 1758.6,-2515.2 1764.6,-2509.2 1770.6,-2509.2 1770.6,-2509.2 1919.4,-2509.2 1919.4,-2509.2 1925.4,-2509.2 1931.4,-2515.2 1931.4,-2521.2 1931.4,-2521.2 1931.4,-2562 1931.4,-2562 1931.4,-2568 1925.4,-2574 1919.4,-2574"/>
<text xml:space="preserve" text-anchor="middle" x="1845" y="-2544.1" font-family="Arial" font-size="10.00">ERP System</text>
<text xml:space="preserve" text-anchor="middle" x="1845" y="-2532.1" font-family="Arial" font-size="10.00">[enterprise_server]</text>
</g>
<!-- ent_eam_server&#45;&gt;ent_erp_server -->
<!-- idmz_firewall -->
<g id="node11" class="node">
<title>idmz_firewall</title>
<path fill="#c00000" stroke="#222222" stroke-width="2" d="M1755.4,-2283.2C1755.4,-2283.2 1606.6,-2283.2 1606.6,-2283.2 1600.6,-2283.2 1594.6,-2277.2 1594.6,-2271.2 1594.6,-2271.2 1594.6,-2230.4 1594.6,-2230.4 1594.6,-2224.4 1600.6,-2218.4 1606.6,-2218.4 1606.6,-2218.4 1755.4,-2218.4 1755.4,-2218.4 1761.4,-2218.4 1767.4,-2224.4 1767.4,-2230.4 1767.4,-2230.4 1767.4,-2271.2 1767.4,-2271.2 1767.4,-2277.2 1761.4,-2283.2 1755.4,-2283.2"/>
<text xml:space="preserve" text-anchor="middle" x="1681" y="-2253.3" font-family="Arial" font-size="10.00">IDMZ Firewall</text>
<text xml:space="preserve" text-anchor="middle" x="1681" y="-2241.3" font-family="Arial" font-size="10.00">[firewall]</text>
</g>
<!-- ent_eam_server&#45;&gt;idmz_firewall -->
<g id="edge30" class="edge">
<title>ent_eam_server&#45;&gt;idmz_firewall</title>
<path fill="none" stroke="#e69138" stroke-width="1.4" d="M1619,-2508.24C1619,-2508.24 1619,-2293.89 1619,-2293.89"/>
<polygon fill="#e69138" stroke="#e69138" stroke-width="1.4" points="1621.8,-2293.89 1619,-2285.89 1616.2,-2293.89 1621.8,-2293.89"/>
<text xml:space="preserve" text-anchor="middle" x="1629.5" y="-2443.6" font-family="Arial" font-size="8.00">HTTPS | UNENC</text>
</g>
<!-- ent_erp_server&#45;&gt;idmz_firewall -->
<g id="edge29" class="edge">
<title>ent_erp_server&#45;&gt;idmz_firewall</title>
<path fill="none" stroke="#e69138" stroke-width="1.4" d="M1763,-2508.24C1763,-2508.24 1763,-2293.89 1763,-2293.89"/>
<polygon fill="#e69138" stroke="#e69138" stroke-width="1.4" points="1765.8,-2293.89 1763,-2285.89 1760.2,-2293.89 1765.8,-2293.89"/>
<text xml:space="preserve" text-anchor="middle" x="1795.5" y="-2443.6" font-family="Arial" font-size="8.00">HTTPS | UNENC</text>
</g>
<!-- idmz_data_diode -->
<g id="node10" class="node">
<title>idmz_data_diode</title>
<path fill="#c00000" stroke="#222222" stroke-width="2" d="M1467.4,-2283.2C1467.4,-2283.2 1318.6,-2283.2 1318.6,-2283.2 1312.6,-2283.2 1306.6,-2277.2 1306.6,-2271.2 1306.6,-2271.2 1306.6,-2230.4 1306.6,-2230.4 1306.6,-2224.4 1312.6,-2218.4 1318.6,-2218.4 1318.6,-2218.4 1467.4,-2218.4 1467.4,-2218.4 1473.4,-2218.4 1479.4,-2224.4 1479.4,-2230.4 1479.4,-2230.4 1479.4,-2271.2 1479.4,-2271.2 1479.4,-2277.2 1473.4,-2283.2 1467.4,-2283.2"/>
<text xml:space="preserve" text-anchor="middle" x="1393" y="-2253.3" font-family="Arial" font-size="10.00">Data Diode</text>
<text xml:space="preserve" text-anchor="middle" x="1393" y="-2241.3" font-family="Arial" font-size="10.00">[data_diode]</text>
</g>
<!-- idmz_data_diode&#45;&gt;idmz_firewall -->
<!-- ext_kms_server -->
<g id="node14" class="node">
<title>ext_kms_server</title>
<path fill="#e06666" stroke="#222222" stroke-width="2" d="M1467.4,-2001.15C1467.4,-2001.15 1318.6,-2001.15 1318.6,-2001.15 1312.6,-2001.15 1306.6,-1995.15 1306.6,-1989.15 1306.6,-1989.15 1306.6,-1948.35 1306.6,-1948.35 1306.6,-1942.35 1312.6,-1936.35 1318.6,-1936.35 1318.6,-1936.35 1467.4,-1936.35 1467.4,-1936.35 1473.4,-1936.35 1479.4,-1942.35 1479.4,-1948.35 1479.4,-1948.35 1479.4,-1989.15 1479.4,-1989.15 1479.4,-1995.15 1473.4,-2001.15 1467.4,-2001.15"/>
<text xml:space="preserve" text-anchor="middle" x="1393" y="-1971.25" font-family="Arial" font-size="10.00">External KMS Server</text>
<text xml:space="preserve" text-anchor="middle" x="1393" y="-1959.25" font-family="Arial" font-size="10.00">[external_kms_server]</text>
</g>
<!-- idmz_data_diode&#45;&gt;ext_kms_server -->
<!-- idmz_jump_host -->
<g id="node12" class="node">
<title>idmz_jump_host</title>
<path fill="#c00000" stroke="#222222" stroke-width="2" d="M2043.4,-2283.2C2043.4,-2283.2 1894.6,-2283.2 1894.6,-2283.2 1888.6,-2283.2 1882.6,-2277.2 1882.6,-2271.2 1882.6,-2271.2 1882.6,-2230.4 1882.6,-2230.4 1882.6,-2224.4 1888.6,-2218.4 1894.6,-2218.4 1894.6,-2218.4 2043.4,-2218.4 2043.4,-2218.4 2049.4,-2218.4 2055.4,-2224.4 2055.4,-2230.4 2055.4,-2230.4 2055.4,-2271.2 2055.4,-2271.2 2055.4,-2277.2 2049.4,-2283.2 2043.4,-2283.2"/>
<text xml:space="preserve" text-anchor="middle" x="1969" y="-2253.3" font-family="Arial" font-size="10.00">Jump Host</text>
<text xml:space="preserve" text-anchor="middle" x="1969" y="-2241.3" font-family="Arial" font-size="10.00">[jump_host]</text>
</g>
<!-- idmz_firewall&#45;&gt;idmz_jump_host -->
<!-- idmz_vpn_gateway -->
<g id="node13" class="node">
<title>idmz_vpn_gateway</title>
<path fill="#c00000" stroke="#222222" stroke-width="2" d="M2331.4,-2283.2C2331.4,-2283.2 2182.6,-2283.2 2182.6,-2283.2 2176.6,-2283.2 2170.6,-2277.2 2170.6,-2271.2 2170.6,-2271.2 2170.6,-2230.4 2170.6,-2230.4 2170.6,-2224.4 2176.6,-2218.4 2182.6,-2218.4 2182.6,-2218.4 2331.4,-2218.4 2331.4,-2218.4 2337.4,-2218.4 2343.4,-2224.4 2343.4,-2230.4 2343.4,-2230.4 2343.4,-2271.2 2343.4,-2271.2 2343.4,-2277.2 2337.4,-2283.2 2331.4,-2283.2"/>
<text xml:space="preserve" text-anchor="middle" x="2257" y="-2253.3" font-family="Arial" font-size="10.00">VPN Gateway</text>
<text xml:space="preserve" text-anchor="middle" x="2257" y="-2241.3" font-family="Arial" font-size="10.00">[vpn_gateway]</text>
</g>
<!-- idmz_firewall&#45;&gt;idmz_vpn_gateway -->
<g id="edge31" class="edge">
<title>idmz_firewall&#45;&gt;idmz_vpn_gateway</title>
<path fill="none" stroke="#e69138" stroke-width="1.4" d="M1747.4,-2217.43C1747.4,-2175.8 1747.4,-2110 1747.4,-2110 1747.4,-2110 2237,-2110 2237,-2110 2237,-2110 2237,-2207.31 2237,-2207.31"/>
<polygon fill="#e69138" stroke="#e69138" stroke-width="1.4" points="2234.2,-2207.31 2237,-2215.31 2239.8,-2207.31 2234.2,-2207.31"/>
<text xml:space="preserve" text-anchor="middle" x="1969" y="-2443.6" font-family="Arial" font-size="8.00">HTTPS | UNENC</text>
</g>
<!-- idmz_jump_host&#45;&gt;idmz_vpn_gateway -->
<!-- eng_workstation -->
<g id="node20" class="node">
<title>eng_workstation</title>
<path fill="#6aa84f" stroke="#222222" stroke-width="2" d="M1467.4,-1710.35C1467.4,-1710.35 1318.6,-1710.35 1318.6,-1710.35 1312.6,-1710.35 1306.6,-1704.35 1306.6,-1698.35 1306.6,-1698.35 1306.6,-1657.55 1306.6,-1657.55 1306.6,-1651.55 1312.6,-1645.55 1318.6,-1645.55 1318.6,-1645.55 1467.4,-1645.55 1467.4,-1645.55 1473.4,-1645.55 1479.4,-1651.55 1479.4,-1657.55 1479.4,-1657.55 1479.4,-1698.35 1479.4,-1698.35 1479.4,-1704.35 1473.4,-1710.35 1467.4,-1710.35"/>
<text xml:space="preserve" text-anchor="middle" x="1393" y="-1680.45" font-family="Arial" font-size="10.00">Engineering Workstation</text>
<text xml:space="preserve" text-anchor="middle" x="1393" y="-1668.45" font-family="Arial" font-size="10.00">[engineering_workstation]</text>
</g>
<!-- idmz_jump_host&#45;&gt;eng_workstation -->
<g id="edge34" class="edge">
<title>idmz_jump_host&#45;&gt;eng_workstation</title>
<path fill="none" stroke="#e69138" stroke-width="1.4" stroke-dasharray="1,5" d="M2035.4,-2217.57C2035.4,-2123.3 2035.4,-1861 2035.4,-1861 2035.4,-1861 1393,-1861 1393,-1861 1393,-1861 1393,-1721.22 1393,-1721.22"/>
<polygon fill="#e69138" stroke="#e69138" stroke-width="1.4" points="1395.8,-1721.22 1393,-1713.22 1390.2,-1721.22 1395.8,-1721.22"/>
<text xml:space="preserve" text-anchor="middle" x="3047.25" y="-1966.03" font-family="Arial" font-size="8.00">SSH | UNENC</text>
</g>
<!-- ops_workstation -->
<g id="node23" class="node">
<title>ops_workstation</title>
<path fill="#6aa84f" stroke="#222222" stroke-width="2" d="M1698.4,-1710.35C1698.4,-1710.35 1549.6,-1710.35 1549.6,-1710.35 1543.6,-1710.35 1537.6,-1704.35 1537.6,-1698.35 1537.6,-1698.35 1537.6,-1657.55 1537.6,-1657.55 1537.6,-1651.55 1543.6,-1645.55 1549.6,-1645.55 1549.6,-1645.55 1698.4,-1645.55 1698.4,-1645.55 1704.4,-1645.55 1710.4,-1651.55 1710.4,-1657.55 1710.4,-1657.55 1710.4,-1698.35 1710.4,-1698.35 1710.4,-1704.35 1704.4,-1710.35 1698.4,-1710.35"/>
<text xml:space="preserve" text-anchor="middle" x="1624" y="-1680.45" font-family="Arial" font-size="10.00">Operations Workstation</text>
<text xml:space="preserve" text-anchor="middle" x="1624" y="-1668.45" font-family="Arial" font-size="10.00">[operations_workstation]</text>
</g>
<!-- idmz_jump_host&#45;&gt;ops_workstation -->
<g id="edge33" class="edge">
<title>idmz_jump_host&#45;&gt;ops_workstation</title>
<path fill="none" stroke="#e69138" stroke-width="1.4" d="M1882.01,-2240C1840.18,-2240 1799,-2240 1799,-2240 1799,-2240 1799,-1694 1799,-1694 1799,-1694 1721.36,-1694 1721.36,-1694"/>
<polygon fill="#e69138" stroke="#e69138" stroke-width="1.4" points="1721.36,-1691.2 1713.36,-1694 1721.36,-1696.8 1721.36,-1691.2"/>
<text xml:space="preserve" text-anchor="middle" x="3216.25" y="-1966.03" font-family="Arial" font-size="8.00">SSH | UNENC</text>
</g>
<!-- idmz_vpn_gateway&#45;&gt;idmz_jump_host -->
<g id="edge32" class="edge">
<title>idmz_vpn_gateway&#45;&gt;idmz_jump_host</title>
<path fill="none" stroke="#e69138" stroke-width="1.4" d="M2169.81,-2240C2169.81,-2240 2066.51,-2240 2066.51,-2240"/>
<polygon fill="#e69138" stroke="#e69138" stroke-width="1.4" points="2066.51,-2237.2 2058.51,-2240 2066.51,-2242.8 2066.51,-2237.2"/>
</g>
<!-- ext_kms_server&#45;&gt;l_kavach -->
<g id="edge63" class="edge">
<title>ext_kms_server&#45;&gt;l_kavach</title>
<path fill="none" stroke="#e69138" stroke-width="1.4" d="M1305.88,-1980C1187.17,-1980 989.2,-1980 989.2,-1980 989.2,-1980 989.2,-1694 989.2,-1694 989.2,-1694 627.3,-1694 627.3,-1694"/>
<polygon fill="#e69138" stroke="#e69138" stroke-width="1.4" points="627.3,-1691.2 619.3,-1694 627.3,-1696.8 627.3,-1691.2"/>
<text xml:space="preserve" text-anchor="middle" x="816.5" y="-1870.75" font-family="Arial" font-size="8.00">HTTPS | UNENC</text>
</g>
<!-- ext_kms_server&#45;&gt;eng_workstation -->
<!-- ext_kms_server&#45;&gt;s_kavach -->
<g id="edge62" class="edge">
<title>ext_kms_server&#45;&gt;s_kavach</title>
<path fill="none" stroke="#e69138" stroke-width="1.4" d="M1306.05,-1958C1190.02,-1958 999,-1958 999,-1958 999,-1958 999,-848.92 999,-848.92"/>
<polygon fill="#e69138" stroke="#e69138" stroke-width="1.4" points="1001.8,-848.92 999,-840.92 996.2,-848.92 1001.8,-848.92"/>
<text xml:space="preserve" text-anchor="middle" x="974.5" y="-1384.43" font-family="Arial" font-size="8.00">HTTPS | UNENC</text>
</g>
<!-- sec_ids_sensor -->
<g id="node15" class="node">
<title>sec_ids_sensor</title>
<path fill="#e06666" stroke="#222222" stroke-width="2" d="M1715.4,-2001.15C1715.4,-2001.15 1566.6,-2001.15 1566.6,-2001.15 1560.6,-2001.15 1554.6,-1995.15 1554.6,-1989.15 1554.6,-1989.15 1554.6,-1948.35 1554.6,-1948.35 1554.6,-1942.35 1560.6,-1936.35 1566.6,-1936.35 1566.6,-1936.35 1715.4,-1936.35 1715.4,-1936.35 1721.4,-1936.35 1727.4,-1942.35 1727.4,-1948.35 1727.4,-1948.35 1727.4,-1989.15 1727.4,-1989.15 1727.4,-1995.15 1721.4,-2001.15 1715.4,-2001.15"/>
<text xml:space="preserve" text-anchor="middle" x="1641" y="-1971.25" font-family="Arial" font-size="10.00">IDS Sensor</text>
<text xml:space="preserve" text-anchor="middle" x="1641" y="-1959.25" font-family="Arial" font-size="10.00">[ids_sensor]</text>
</g>
<!-- sec_ips_sensor -->
<g id="node16" class="node">
<title>sec_ips_sensor</title>
<path fill="#e06666" stroke="#222222" stroke-width="2" d="M2003.4,-2001.15C2003.4,-2001.15 1854.6,-2001.15 1854.6,-2001.15 1848.6,-2001.15 1842.6,-1995.15 1842.6,-1989.15 1842.6,-1989.15 1842.6,-1948.35 1842.6,-1948.35 1842.6,-1942.35 1848.6,-1936.35 1854.6,-1936.35 1854.6,-1936.35 2003.4,-1936.35 2003.4,-1936.35 2009.4,-1936.35 2015.4,-1942.35 2015.4,-1948.35 2015.4,-1948.35 2015.4,-1989.15 2015.4,-1989.15 2015.4,-1995.15 2009.4,-2001.15 2003.4,-2001.15"/>
<text xml:space="preserve" text-anchor="middle" x="1929" y="-1971.25" font-family="Arial" font-size="10.00">IPS Sensor</text>
<text xml:space="preserve" text-anchor="middle" x="1929" y="-1959.25" font-family="Arial" font-size="10.00">[ips_sensor]</text>
</g>
<!-- sec_ids_sensor&#45;&gt;sec_ips_sensor -->
<!-- sec_siem -->
<g id="node17" class="node">
<title>sec_siem</title>
<path fill="#e06666" stroke="#222222" stroke-width="2" d="M2291.4,-2001.15C2291.4,-2001.15 2142.6,-2001.15 2142.6,-2001.15 2136.6,-2001.15 2130.6,-1995.15 2130.6,-1989.15 2130.6,-1989.15 2130.6,-1948.35 2130.6,-1948.35 2130.6,-1942.35 2136.6,-1936.35 2142.6,-1936.35 2142.6,-1936.35 2291.4,-1936.35 2291.4,-1936.35 2297.4,-1936.35 2303.4,-1942.35 2303.4,-1948.35 2303.4,-1948.35 2303.4,-1989.15 2303.4,-1989.15 2303.4,-1995.15 2297.4,-2001.15 2291.4,-2001.15"/>
<text xml:space="preserve" text-anchor="middle" x="2217" y="-1971.25" font-family="Arial" font-size="10.00">SIEM</text>
<text xml:space="preserve" text-anchor="middle" x="2217" y="-1959.25" font-family="Arial" font-size="10.00">[siem]</text>
</g>
<!-- sec_ips_sensor&#45;&gt;sec_siem -->
<!-- sec_soc_server -->
<g id="node18" class="node">
<title>sec_soc_server</title>
<path fill="#e06666" stroke="#222222" stroke-width="2" d="M2584.4,-2001.15C2584.4,-2001.15 2435.6,-2001.15 2435.6,-2001.15 2429.6,-2001.15 2423.6,-1995.15 2423.6,-1989.15 2423.6,-1989.15 2423.6,-1948.35 2423.6,-1948.35 2423.6,-1942.35 2429.6,-1936.35 2435.6,-1936.35 2435.6,-1936.35 2584.4,-1936.35 2584.4,-1936.35 2590.4,-1936.35 2596.4,-1942.35 2596.4,-1948.35 2596.4,-1948.35 2596.4,-1989.15 2596.4,-1989.15 2596.4,-1995.15 2590.4,-2001.15 2584.4,-2001.15"/>
<text xml:space="preserve" text-anchor="middle" x="2510" y="-1971.25" font-family="Arial" font-size="10.00">SOC Server</text>
<text xml:space="preserve" text-anchor="middle" x="2510" y="-1959.25" font-family="Arial" font-size="10.00">[soc_server]</text>
</g>
<!-- sec_siem&#45;&gt;sec_soc_server -->
<!-- sec_siem&#45;&gt;sec_soc_server -->
<g id="edge35" class="edge">
<title>sec_siem&#45;&gt;sec_soc_server</title>
<path fill="none" stroke="#e69138" stroke-width="1.4" d="M2304.12,-1980C2304.12,-1980 2412.59,-1980 2412.59,-1980"/>
<polygon fill="#e69138" stroke="#e69138" stroke-width="1.4" points="2412.59,-1982.8 2420.59,-1980 2412.59,-1977.2 2412.59,-1982.8"/>
</g>
<!-- sec_vuln_scanner -->
<g id="node19" class="node">
<title>sec_vuln_scanner</title>
<path fill="#e06666" stroke="#222222" stroke-width="2" d="M2877.4,-2001.15C2877.4,-2001.15 2728.6,-2001.15 2728.6,-2001.15 2722.6,-2001.15 2716.6,-1995.15 2716.6,-1989.15 2716.6,-1989.15 2716.6,-1948.35 2716.6,-1948.35 2716.6,-1942.35 2722.6,-1936.35 2728.6,-1936.35 2728.6,-1936.35 2877.4,-1936.35 2877.4,-1936.35 2883.4,-1936.35 2889.4,-1942.35 2889.4,-1948.35 2889.4,-1948.35 2889.4,-1989.15 2889.4,-1989.15 2889.4,-1995.15 2883.4,-2001.15 2877.4,-2001.15"/>
<text xml:space="preserve" text-anchor="middle" x="2803" y="-1971.25" font-family="Arial" font-size="10.00">Vulnerability Scanner</text>
<text xml:space="preserve" text-anchor="middle" x="2803" y="-1959.25" font-family="Arial" font-size="10.00">[vulnerability_scanner]</text>
</g>
<!-- sec_soc_server&#45;&gt;sec_vuln_scanner -->
<!-- sec_vuln_scanner&#45;&gt;sec_soc_server -->
<g id="edge36" class="edge">
<title>sec_vuln_scanner&#45;&gt;sec_soc_server</title>
<path fill="none" stroke="#e69138" stroke-width="1.4" d="M2715.88,-1980C2715.88,-1980 2607.41,-1980 2607.41,-1980"/>
<polygon fill="#e69138" stroke="#e69138" stroke-width="1.4" points="2607.41,-1977.2 2599.41,-1980 2607.41,-1982.8 2607.41,-1977.2"/>
</g>
<!-- ops_nms -->
<g id="node21" class="node">
<title>ops_nms</title>
<path fill="#6aa84f" stroke="#222222" stroke-width="2" d="M2222.4,-1710.35C2222.4,-1710.35 2073.6,-1710.35 2073.6,-1710.35 2067.6,-1710.35 2061.6,-1704.35 2061.6,-1698.35 2061.6,-1698.35 2061.6,-1657.55 2061.6,-1657.55 2061.6,-1651.55 2067.6,-1645.55 2073.6,-1645.55 2073.6,-1645.55 2222.4,-1645.55 2222.4,-1645.55 2228.4,-1645.55 2234.4,-1651.55 2234.4,-1657.55 2234.4,-1657.55 2234.4,-1698.35 2234.4,-1698.35 2234.4,-1704.35 2228.4,-1710.35 2222.4,-1710.35"/>
<text xml:space="preserve" text-anchor="middle" x="2148" y="-1680.45" font-family="Arial" font-size="10.00">Network Management System</text>
<text xml:space="preserve" text-anchor="middle" x="2148" y="-1668.45" font-family="Arial" font-size="10.00">[nms]</text>
</g>
<!-- eng_workstation&#45;&gt;ops_nms -->
<!-- telecom_mpls_router -->
<g id="node25" class="node">
<title>telecom_mpls_router</title>
<path fill="#3d85c6" stroke="#222222" stroke-width="2" d="M1467.4,-1419.55C1467.4,-1419.55 1318.6,-1419.55 1318.6,-1419.55 1312.6,-1419.55 1306.6,-1413.55 1306.6,-1407.55 1306.6,-1407.55 1306.6,-1366.75 1306.6,-1366.75 1306.6,-1360.75 1312.6,-1354.75 1318.6,-1354.75 1318.6,-1354.75 1467.4,-1354.75 1467.4,-1354.75 1473.4,-1354.75 1479.4,-1360.75 1479.4,-1366.75 1479.4,-1366.75 1479.4,-1407.55 1479.4,-1407.55 1479.4,-1413.55 1473.4,-1419.55 1467.4,-1419.55"/>
<text xml:space="preserve" text-anchor="middle" x="1393" y="-1389.65" font-family="Arial" font-size="10.00">MPLS Router</text>
<text xml:space="preserve" text-anchor="middle" x="1393" y="-1377.65" font-family="Arial" font-size="10.00">[mpls_router]</text>
</g>
<!-- eng_workstation&#45;&gt;telecom_mpls_router -->
<!-- electronic_interlocking -->
<g id="node29" class="node">
<title>electronic_interlocking</title>
<path fill="#f1c232" stroke="#cc0000" stroke-width="2" d="M1467.4,-837.95C1467.4,-837.95 1318.6,-837.95 1318.6,-837.95 1312.6,-837.95 1306.6,-831.95 1306.6,-825.95 1306.6,-825.95 1306.6,-785.15 1306.6,-785.15 1306.6,-779.15 1312.6,-773.15 1318.6,-773.15 1318.6,-773.15 1467.4,-773.15 1467.4,-773.15 1473.4,-773.15 1479.4,-779.15 1479.4,-785.15 1479.4,-785.15 1479.4,-825.95 1479.4,-825.95 1479.4,-831.95 1473.4,-837.95 1467.4,-837.95"/>
<text xml:space="preserve" text-anchor="middle" x="1393" y="-808.05" font-family="Arial" font-size="10.00">Electronic Interlocking</text>
<text xml:space="preserve" text-anchor="middle" x="1393" y="-796.05" font-family="Arial" font-size="10.00">[electronic_interlocking]</text>
</g>
<!-- eng_workstation&#45;&gt;electronic_interlocking -->
<g id="edge61" class="edge">
<title>eng_workstation&#45;&gt;electronic_interlocking</title>
<path fill="none" stroke="#e69138" stroke-width="1.4" stroke-dasharray="1,5" d="M1480.25,-1678C1496.5,-1678 1508.5,-1678 1508.5,-1678 1508.5,-1678 1508.5,-825 1508.5,-825 1508.5,-825 1490.36,-825 1490.36,-825"/>
<polygon fill="#e69138" stroke="#e69138" stroke-width="1.4" points="1490.36,-822.2 1482.36,-825 1490.36,-827.8 1490.36,-822.2"/>
<text xml:space="preserve" text-anchor="middle" x="2015.25" y="-1289.15" font-family="Arial" font-size="8.00">SSH | UNENC</text>
</g>
<!-- eng_workstation&#45;&gt;s_kavach -->
<g id="edge60" class="edge">
<title>eng_workstation&#45;&gt;s_kavach</title>
<path fill="none" stroke="#e69138" stroke-width="1.4" stroke-dasharray="1,5" d="M1305.82,-1662C1192.46,-1662 1008.8,-1662 1008.8,-1662 1008.8,-1662 1008.8,-848.98 1008.8,-848.98"/>
<polygon fill="#e69138" stroke="#e69138" stroke-width="1.4" points="1011.6,-848.98 1008.8,-840.98 1006,-848.98 1011.6,-848.98"/>
<text xml:space="preserve" text-anchor="middle" x="1876.25" y="-1289.15" font-family="Arial" font-size="8.00">SSH | UNENC</text>
</g>
<!-- maint_workstation -->
<g id="node22" class="node">
<title>maint_workstation</title>
<path fill="#6aa84f" stroke="#222222" stroke-width="2" d="M2510.4,-1710.35C2510.4,-1710.35 2361.6,-1710.35 2361.6,-1710.35 2355.6,-1710.35 2349.6,-1704.35 2349.6,-1698.35 2349.6,-1698.35 2349.6,-1657.55 2349.6,-1657.55 2349.6,-1651.55 2355.6,-1645.55 2361.6,-1645.55 2361.6,-1645.55 2510.4,-1645.55 2510.4,-1645.55 2516.4,-1645.55 2522.4,-1651.55 2522.4,-1657.55 2522.4,-1657.55 2522.4,-1698.35 2522.4,-1698.35 2522.4,-1704.35 2516.4,-1710.35 2510.4,-1710.35"/>
<text xml:space="preserve" text-anchor="middle" x="2436" y="-1680.45" font-family="Arial" font-size="10.00">Maintenance Workstation</text>
<text xml:space="preserve" text-anchor="middle" x="2436" y="-1668.45" font-family="Arial" font-size="10.00">[operations_workstation]</text>
</g>
<!-- ops_nms&#45;&gt;maint_workstation -->
<!-- maint_workstation&#45;&gt;ops_workstation -->
<!-- ops_tms -->
<g id="node24" class="node">
<title>ops_tms</title>
<path fill="#6aa84f" stroke="#222222" stroke-width="2" d="M1991.4,-1710.35C1991.4,-1710.35 1842.6,-1710.35 1842.6,-1710.35 1836.6,-1710.35 1830.6,-1704.35 1830.6,-1698.35 1830.6,-1698.35 1830.6,-1657.55 1830.6,-1657.55 1830.6,-1651.55 1836.6,-1645.55 1842.6,-1645.55 1842.6,-1645.55 1991.4,-1645.55 1991.4,-1645.55 1997.4,-1645.55 2003.4,-1651.55 2003.4,-1657.55 2003.4,-1657.55 2003.4,-1698.35 2003.4,-1698.35 2003.4,-1704.35 1997.4,-1710.35 1991.4,-1710.35"/>
<text xml:space="preserve" text-anchor="middle" x="1917" y="-1680.45" font-family="Arial" font-size="10.00">Traffic Management System</text>
<text xml:space="preserve" text-anchor="middle" x="1917" y="-1668.45" font-family="Arial" font-size="10.00">[tms]</text>
</g>
<!-- maint_workstation&#45;&gt;ops_tms -->
<g id="edge38" class="edge">
<title>maint_workstation&#45;&gt;ops_tms</title>
<path fill="none" stroke="#e69138" stroke-width="1.4" d="M2385.93,-1644.7C2385.93,-1601.9 2385.93,-1533 2385.93,-1533 2385.93,-1533 1922.87,-1533 1922.87,-1533 1922.87,-1533 1922.87,-1634.58 1922.87,-1634.58"/>
<polygon fill="#e69138" stroke="#e69138" stroke-width="1.4" points="1920.07,-1634.58 1922.87,-1642.58 1925.67,-1634.58 1920.07,-1634.58"/>
<text xml:space="preserve" text-anchor="middle" x="2260" y="-1870.75" font-family="Arial" font-size="8.00">HTTPS | UNENC</text>
</g>
<!-- ops_workstation&#45;&gt;ops_tms -->
<!-- ops_workstation&#45;&gt;ops_tms -->
<g id="edge37" class="edge">
<title>ops_workstation&#45;&gt;ops_tms</title>
<path fill="none" stroke="#e69138" stroke-width="1.4" d="M1711.12,-1678C1711.12,-1678 1819.59,-1678 1819.59,-1678"/>
<polygon fill="#e69138" stroke="#e69138" stroke-width="1.4" points="1819.59,-1680.8 1827.59,-1678 1819.59,-1675.2 1819.59,-1680.8"/>
</g>
<!-- ops_tms&#45;&gt;telecom_mpls_router -->
<g id="edge39" class="edge">
<title>ops_tms&#45;&gt;telecom_mpls_router</title>
<path fill="none" stroke="#e69138" stroke-width="1.4" d="M1847.93,-1644.58C1847.93,-1619.34 1847.93,-1589 1847.93,-1589 1847.93,-1589 1421.8,-1589 1421.8,-1589 1421.8,-1589 1421.8,-1430.6 1421.8,-1430.6"/>
<polygon fill="#e69138" stroke="#e69138" stroke-width="1.4" points="1424.6,-1430.6 1421.8,-1422.6 1419,-1430.6 1424.6,-1430.6"/>
<text xml:space="preserve" text-anchor="middle" x="2060.5" y="-1579.95" font-family="Arial" font-size="8.00">HTTPS | UNENC</text>
</g>
<!-- ops_tms&#45;&gt;electronic_interlocking -->
<g id="edge43" class="edge">
<title>ops_tms&#45;&gt;electronic_interlocking</title>
<path fill="none" stroke="#e69138" stroke-width="1.4" d="M1865.27,-1644.8C1865.27,-1486.14 1865.27,-812 1865.27,-812 1865.27,-812 1490.29,-812 1490.29,-812"/>
<polygon fill="#e69138" stroke="#e69138" stroke-width="1.4" points="1490.29,-809.2 1482.29,-812 1490.29,-814.8 1490.29,-809.2"/>
<text xml:space="preserve" text-anchor="middle" x="2161.5" y="-1289.15" font-family="Arial" font-size="8.00">OPC_UA | UNENC</text>
</g>
<!-- telecom_gateway -->
<g id="node26" class="node">
<title>telecom_gateway</title>
<path fill="#3d85c6" stroke="#222222" stroke-width="2" d="M1755.4,-1419.55C1755.4,-1419.55 1606.6,-1419.55 1606.6,-1419.55 1600.6,-1419.55 1594.6,-1413.55 1594.6,-1407.55 1594.6,-1407.55 1594.6,-1366.75 1594.6,-1366.75 1594.6,-1360.75 1600.6,-1354.75 1606.6,-1354.75 1606.6,-1354.75 1755.4,-1354.75 1755.4,-1354.75 1761.4,-1354.75 1767.4,-1360.75 1767.4,-1366.75 1767.4,-1366.75 1767.4,-1407.55 1767.4,-1407.55 1767.4,-1413.55 1761.4,-1419.55 1755.4,-1419.55"/>
<text xml:space="preserve" text-anchor="middle" x="1681" y="-1389.65" font-family="Arial" font-size="10.00">Telecom Gateway</text>
<text xml:space="preserve" text-anchor="middle" x="1681" y="-1377.65" font-family="Arial" font-size="10.00">[telecom_gateway]</text>
</g>
<!-- telecom_mpls_router&#45;&gt;telecom_gateway -->
<!-- telecom_mpls_router&#45;&gt;telecom_gateway -->
<g id="edge40" class="edge">
<title>telecom_mpls_router&#45;&gt;telecom_gateway</title>
<path fill="none" stroke="#e69138" stroke-width="1.4" d="M1480.19,-1398C1480.19,-1398 1583.49,-1398 1583.49,-1398"/>
<polygon fill="#e69138" stroke="#e69138" stroke-width="1.4" points="1583.49,-1400.8 1591.49,-1398 1583.49,-1395.2 1583.49,-1400.8"/>
</g>
<!-- radio_gateway -->
<g id="node27" class="node">
<title>radio_gateway</title>
<path fill="#6fa8dc" stroke="#222222" stroke-width="2" d="M1467.4,-1128.75C1467.4,-1128.75 1318.6,-1128.75 1318.6,-1128.75 1312.6,-1128.75 1306.6,-1122.75 1306.6,-1116.75 1306.6,-1116.75 1306.6,-1075.95 1306.6,-1075.95 1306.6,-1069.95 1312.6,-1063.95 1318.6,-1063.95 1318.6,-1063.95 1467.4,-1063.95 1467.4,-1063.95 1473.4,-1063.95 1479.4,-1069.95 1479.4,-1075.95 1479.4,-1075.95 1479.4,-1116.75 1479.4,-1116.75 1479.4,-1122.75 1473.4,-1128.75 1467.4,-1128.75"/>
<text xml:space="preserve" text-anchor="middle" x="1393" y="-1098.85" font-family="Arial" font-size="10.00">Radio Gateway</text>
<text xml:space="preserve" text-anchor="middle" x="1393" y="-1086.85" font-family="Arial" font-size="10.00">[radio_gateway]</text>
</g>
<!-- telecom_mpls_router&#45;&gt;radio_gateway -->
<!-- telecom_gateway&#45;&gt;radio_gateway -->
<g id="edge41" class="edge">
<title>telecom_gateway&#45;&gt;radio_gateway</title>
<path fill="none" stroke="#e69138" stroke-width="1.4" d="M1652.2,-1353.75C1652.2,-1277.28 1652.2,-1096 1652.2,-1096 1652.2,-1096 1490.51,-1096 1490.51,-1096"/>
<polygon fill="#e69138" stroke="#e69138" stroke-width="1.4" points="1490.51,-1093.2 1482.51,-1096 1490.51,-1098.8 1490.51,-1093.2"/>
<text xml:space="preserve" text-anchor="middle" x="1605.75" y="-1289.15" font-family="Arial" font-size="8.00">IP | UNENC</text>
</g>
<!-- radio_gateway&#45;&gt;radio_base_station -->
<!-- radio_gateway&#45;&gt;radio_base_station -->
<g id="edge42" class="edge">
<title>radio_gateway&#45;&gt;radio_base_station</title>
<path fill="none" stroke="#e69138" stroke-width="1.4" d="M1305.81,-1107C1305.81,-1107 1202.51,-1107 1202.51,-1107"/>
<polygon fill="#e69138" stroke="#e69138" stroke-width="1.4" points="1202.51,-1104.2 1194.51,-1107 1202.51,-1109.8 1202.51,-1104.2"/>
</g>
<!-- radio_gateway&#45;&gt;electronic_interlocking -->
<!-- electronic_interlocking&#45;&gt;s_kavach -->
<!-- electronic_interlocking&#45;&gt;s_kavach -->
<g id="edge44" class="edge">
<title>electronic_interlocking&#45;&gt;s_kavach</title>
<path fill="none" stroke="#cc0000" stroke-width="2.5" d="M1305.78,-795C1305.78,-795 1154.93,-795 1154.93,-795"/>
<polygon fill="#cc0000" stroke="#cc0000" stroke-width="2.5" points="1154.93,-792.2 1146.93,-795 1154.93,-797.8 1154.93,-792.2"/>
</g>
<!-- axle_counter_evaluator -->
<g id="node31" class="node">
<title>axle_counter_evaluator</title>
<path fill="#ffd966" stroke="#cc0000" stroke-width="2" d="M1467.4,-547.15C1467.4,-547.15 1318.6,-547.15 1318.6,-547.15 1312.6,-547.15 1306.6,-541.15 1306.6,-535.15 1306.6,-535.15 1306.6,-494.35 1306.6,-494.35 1306.6,-488.35 1312.6,-482.35 1318.6,-482.35 1318.6,-482.35 1467.4,-482.35 1467.4,-482.35 1473.4,-482.35 1479.4,-488.35 1479.4,-494.35 1479.4,-494.35 1479.4,-535.15 1479.4,-535.15 1479.4,-541.15 1473.4,-547.15 1467.4,-547.15"/>
<text xml:space="preserve" text-anchor="middle" x="1393" y="-517.25" font-family="Arial" font-size="10.00">Axle Counter Evaluator</text>
<text xml:space="preserve" text-anchor="middle" x="1393" y="-505.25" font-family="Arial" font-size="10.00">[axle_counter_evaluator]</text>
</g>
<!-- electronic_interlocking&#45;&gt;axle_counter_evaluator -->
<!-- electronic_interlocking&#45;&gt;axle_counter_evaluator -->
<g id="edge46" class="edge">
<title>electronic_interlocking&#45;&gt;axle_counter_evaluator</title>
<path fill="none" stroke="#cc0000" stroke-width="2.5" d="M1364.2,-772.19C1364.2,-772.19 1364.2,-559.5 1364.2,-559.5"/>
<polygon fill="#cc0000" stroke="#cc0000" stroke-width="2.5" points="1367,-559.5 1364.2,-551.5 1361.4,-559.5 1367,-559.5"/>
<text xml:space="preserve" text-anchor="middle" x="1526.5" y="-707.55" font-family="Arial" font-size="8.00">CAN | UNENC | SAFE</text>
</g>
<!-- object_controller -->
<g id="node32" class="node">
<title>object_controller</title>
<path fill="#ffd966" stroke="#cc0000" stroke-width="2" d="M1755.4,-547.15C1755.4,-547.15 1606.6,-547.15 1606.6,-547.15 1600.6,-547.15 1594.6,-541.15 1594.6,-535.15 1594.6,-535.15 1594.6,-494.35 1594.6,-494.35 1594.6,-488.35 1600.6,-482.35 1606.6,-482.35 1606.6,-482.35 1755.4,-482.35 1755.4,-482.35 1761.4,-482.35 1767.4,-488.35 1767.4,-494.35 1767.4,-494.35 1767.4,-535.15 1767.4,-535.15 1767.4,-541.15 1761.4,-547.15 1755.4,-547.15"/>
<text xml:space="preserve" text-anchor="middle" x="1681" y="-517.25" font-family="Arial" font-size="10.00">Object Controller</text>
<text xml:space="preserve" text-anchor="middle" x="1681" y="-505.25" font-family="Arial" font-size="10.00">[object_controller]</text>
</g>
<!-- electronic_interlocking&#45;&gt;object_controller -->
<g id="edge45" class="edge">
<title>electronic_interlocking&#45;&gt;object_controller</title>
<path fill="none" stroke="#cc0000" stroke-width="2.5" d="M1479.99,-786C1573.77,-786 1709.8,-786 1709.8,-786 1709.8,-786 1709.8,-559.79 1709.8,-559.79"/>
<polygon fill="#cc0000" stroke="#cc0000" stroke-width="2.5" points="1712.6,-559.79 1709.8,-551.79 1707,-559.79 1712.6,-559.79"/>
<text xml:space="preserve" text-anchor="middle" x="1696.5" y="-707.55" font-family="Arial" font-size="8.00">CAN | UNENC | SAFE</text>
</g>
<!-- track_circuit -->
<g id="node36" class="node">
<title>track_circuit</title>
<path fill="#f6b26b" stroke="#cc0000" stroke-width="2" d="M2331.4,-256.35C2331.4,-256.35 2182.6,-256.35 2182.6,-256.35 2176.6,-256.35 2170.6,-250.35 2170.6,-244.35 2170.6,-244.35 2170.6,-203.55 2170.6,-203.55 2170.6,-197.55 2176.6,-191.55 2182.6,-191.55 2182.6,-191.55 2331.4,-191.55 2331.4,-191.55 2337.4,-191.55 2343.4,-197.55 2343.4,-203.55 2343.4,-203.55 2343.4,-244.35 2343.4,-244.35 2343.4,-250.35 2337.4,-256.35 2331.4,-256.35"/>
<text xml:space="preserve" text-anchor="middle" x="2257" y="-226.45" font-family="Arial" font-size="10.00">Track Circuit</text>
<text xml:space="preserve" text-anchor="middle" x="2257" y="-214.45" font-family="Arial" font-size="10.00">[track_circuit]</text>
</g>
<!-- electronic_interlocking&#45;&gt;track_circuit -->
<g id="edge47" class="edge">
<title>electronic_interlocking&#45;&gt;track_circuit</title>
<path fill="none" stroke="#cc0000" stroke-width="2.5" d="M1480.4,-799C1689.72,-799 2202.5,-799 2202.5,-799 2202.5,-799 2202.5,-268.72 2202.5,-268.72"/>
<polygon fill="#cc0000" stroke="#cc0000" stroke-width="2.5" points="2205.3,-268.72 2202.5,-260.72 2199.7,-268.72 2205.3,-268.72"/>
<text xml:space="preserve" text-anchor="middle" x="2175.5" y="-512.02" font-family="Arial" font-size="8.00">CAN | UNENC | SAFE</text>
</g>
<!-- s_kavach&#45;&gt;radio_base_station -->
<g id="edge51" class="edge">
<title>s_kavach&#45;&gt;radio_base_station</title>
<path fill="none" stroke="#cc0000" stroke-width="2.5" d="M1080.5,-838.91C1080.5,-838.91 1080.5,-1051.6 1080.5,-1051.6"/>
<polygon fill="#cc0000" stroke="#cc0000" stroke-width="2.5" points="1077.7,-1051.6 1080.5,-1059.6 1083.3,-1051.6 1077.7,-1051.6"/>
<text xml:space="preserve" text-anchor="middle" x="1128" y="-998.35" font-family="Arial" font-size="8.00">MCOMM | UNENC | SAFE</text>
</g>
<!-- axle_counter_evaluator&#45;&gt;object_controller -->
<!-- axle_counter_head -->
<g id="node33" class="node">
<title>axle_counter_head</title>
<path fill="#f6b26b" stroke="#cc0000" stroke-width="2" d="M1467.4,-256.35C1467.4,-256.35 1318.6,-256.35 1318.6,-256.35 1312.6,-256.35 1306.6,-250.35 1306.6,-244.35 1306.6,-244.35 1306.6,-203.55 1306.6,-203.55 1306.6,-197.55 1312.6,-191.55 1318.6,-191.55 1318.6,-191.55 1467.4,-191.55 1467.4,-191.55 1473.4,-191.55 1479.4,-197.55 1479.4,-203.55 1479.4,-203.55 1479.4,-244.35 1479.4,-244.35 1479.4,-250.35 1473.4,-256.35 1467.4,-256.35"/>
<text xml:space="preserve" text-anchor="middle" x="1393" y="-226.45" font-family="Arial" font-size="10.00">Axle Counter Head</text>
<text xml:space="preserve" text-anchor="middle" x="1393" y="-214.45" font-family="Arial" font-size="10.00">[axle_counter_head]</text>
</g>
<!-- axle_counter_evaluator&#45;&gt;axle_counter_head -->
<!-- axle_counter_evaluator&#45;&gt;axle_counter_head -->
<g id="edge50" class="edge">
<title>axle_counter_evaluator&#45;&gt;axle_counter_head</title>
<path fill="none" stroke="#cc0000" stroke-width="2.5" d="M1364.2,-481.39C1364.2,-481.39 1364.2,-268.7 1364.2,-268.7"/>
<polygon fill="#cc0000" stroke="#cc0000" stroke-width="2.5" points="1367,-268.7 1364.2,-260.7 1361.4,-268.7 1367,-268.7"/>
<text xml:space="preserve" text-anchor="middle" x="1317.5" y="-416.75" font-family="Arial" font-size="8.00">CAN | UNENC | SAFE</text>
</g>
<!-- point_machine_controller -->
<g id="node34" class="node">
<title>point_machine_controller</title>
<path fill="#f6b26b" stroke="#cc0000" stroke-width="2" d="M1755.4,-256.35C1755.4,-256.35 1606.6,-256.35 1606.6,-256.35 1600.6,-256.35 1594.6,-250.35 1594.6,-244.35 1594.6,-244.35 1594.6,-203.55 1594.6,-203.55 1594.6,-197.55 1600.6,-191.55 1606.6,-191.55 1606.6,-191.55 1755.4,-191.55 1755.4,-191.55 1761.4,-191.55 1767.4,-197.55 1767.4,-203.55 1767.4,-203.55 1767.4,-244.35 1767.4,-244.35 1767.4,-250.35 1761.4,-256.35 1755.4,-256.35"/>
<text xml:space="preserve" text-anchor="middle" x="1681" y="-226.45" font-family="Arial" font-size="10.00">Point Machine Controller</text>
<text xml:space="preserve" text-anchor="middle" x="1681" y="-214.45" font-family="Arial" font-size="10.00">[point_machine_controller]</text>
</g>
<!-- object_controller&#45;&gt;point_machine_controller -->
<g id="edge48" class="edge">
<title>object_controller&#45;&gt;point_machine_controller</title>
<path fill="none" stroke="#cc0000" stroke-width="2.5" d="M1681,-481.39C1681,-481.39 1681,-268.7 1681,-268.7"/>
<polygon fill="#cc0000" stroke="#cc0000" stroke-width="2.5" points="1683.8,-268.7 1681,-260.7 1678.2,-268.7 1683.8,-268.7"/>
<text xml:space="preserve" text-anchor="middle" x="1721.5" y="-416.75" font-family="Arial" font-size="8.00">CAN | UNENC | SAFE</text>
</g>
<!-- signal_controller -->
<g id="node35" class="node">
<title>signal_controller</title>
<path fill="#f6b26b" stroke="#cc0000" stroke-width="2" d="M2043.4,-256.35C2043.4,-256.35 1894.6,-256.35 1894.6,-256.35 1888.6,-256.35 1882.6,-250.35 1882.6,-244.35 1882.6,-244.35 1882.6,-203.55 1882.6,-203.55 1882.6,-197.55 1888.6,-191.55 1894.6,-191.55 1894.6,-191.55 2043.4,-191.55 2043.4,-191.55 2049.4,-191.55 2055.4,-197.55 2055.4,-203.55 2055.4,-203.55 2055.4,-244.35 2055.4,-244.35 2055.4,-250.35 2049.4,-256.35 2043.4,-256.35"/>
<text xml:space="preserve" text-anchor="middle" x="1969" y="-226.45" font-family="Arial" font-size="10.00">Signal Controller</text>
<text xml:space="preserve" text-anchor="middle" x="1969" y="-214.45" font-family="Arial" font-size="10.00">[signal_controller]</text>
</g>
<!-- object_controller&#45;&gt;signal_controller -->
<g id="edge49" class="edge">
<title>object_controller&#45;&gt;signal_controller</title>
<path fill="none" stroke="#cc0000" stroke-width="2.5" d="M1768.34,-515C1851.2,-515 1963.13,-515 1963.13,-515 1963.13,-515 1963.13,-269.12 1963.13,-269.12"/>
<polygon fill="#cc0000" stroke="#cc0000" stroke-width="2.5" points="1965.93,-269.12 1963.13,-261.12 1960.33,-269.12 1965.93,-269.12"/>
<text xml:space="preserve" text-anchor="middle" x="1937.5" y="-416.75" font-family="Arial" font-size="8.00">CAN | UNENC | SAFE</text>
</g>
<!-- axle_counter_head&#45;&gt;point_machine_controller -->
<!-- point_machine_controller&#45;&gt;signal_controller -->
<!-- signal_controller&#45;&gt;track_circuit -->
<!-- trackside_rfid_tag -->
<g id="node37" class="node">
<title>trackside_rfid_tag</title>
<path fill="#f6b26b" stroke="#222222" stroke-width="2" d="M2619.4,-256.35C2619.4,-256.35 2470.6,-256.35 2470.6,-256.35 2464.6,-256.35 2458.6,-250.35 2458.6,-244.35 2458.6,-244.35 2458.6,-203.55 2458.6,-203.55 2458.6,-197.55 2464.6,-191.55 2470.6,-191.55 2470.6,-191.55 2619.4,-191.55 2619.4,-191.55 2625.4,-191.55 2631.4,-197.55 2631.4,-203.55 2631.4,-203.55 2631.4,-244.35 2631.4,-244.35 2631.4,-250.35 2625.4,-256.35 2619.4,-256.35"/>
<text xml:space="preserve" text-anchor="middle" x="2545" y="-226.45" font-family="Arial" font-size="10.00">Trackside RFID Tag</text>
<text xml:space="preserve" text-anchor="middle" x="2545" y="-214.45" font-family="Arial" font-size="10.00">[trackside_rfid_tag]</text>
</g>
<!-- track_circuit&#45;&gt;trackside_rfid_tag -->
<!-- trackside_rfid_tag&#45;&gt;onboard_rfid_reader -->
<g id="edge59" class="edge">
<title>trackside_rfid_tag&#45;&gt;onboard_rfid_reader</title>
<path fill="none" stroke="#e69138" stroke-width="1.4" d="M2545,-190.86C2545,-139.89 2545,-48 2545,-48 2545,-48 610.43,-48 610.43,-48"/>
<polygon fill="#e69138" stroke="#e69138" stroke-width="1.4" points="610.43,-45.2 602.43,-48 610.43,-50.8 610.43,-45.2"/>
<text xml:space="preserve" text-anchor="middle" x="1641.38" y="-125.95" font-family="Arial" font-size="8.00">UNKNOWN | UNENC</text>
</g>
</g>
</svg>
