<?xml version="1.0" encoding="UTF-8" standalone="no"?>
<!DOCTYPE svg PUBLIC "-//W3C//DTD SVG 1.1//EN"
 "http://www.w3.org/Graphics/SVG/1.1/DTD/svg11.dtd">
<!-- Generated by graphviz version 14.1.5 (20260411.2331)
 -->
<!-- Title: RailwayPurdue Pages: 1 -->
<svg width="3161pt" height="1817pt"
 viewBox="0.00 0.00 3161.00 1817.00" xmlns="http://www.w3.org/2000/svg" xmlns:xlink="http://www.w3.org/1999/xlink">
<g id="graph0" class="graph" transform="scale(1 1) rotate(0) translate(28.8 1787.96)">
<title>RailwayPurdue</title>
<polygon fill="white" stroke="none" points="-28.8,28.8 -28.8,-1787.96 3131.8,-1787.96 3131.8,28.8 -28.8,28.8"/>
<g id="clust1" class="cluster">
<title>cluster_onboard</title>
<path fill="#f3e8ff" stroke="#7a3db8" stroke-width="3" stroke-dasharray="5,2" d="M20,-24C20,-24 1429,-24 1429,-24 1435,-24 1441,-30 1441,-36 1441,-36 1441,-117.3 1441,-117.3 1441,-123.3 1435,-129.3 1429,-129.3 1429,-129.3 20,-129.3 20,-129.3 14,-129.3 8,-123.3 8,-117.3 8,-117.3 8,-36 8,-36 8,-30 14,-24 20,-24"/>
<text xml:space="preserve" text-anchor="middle" x="724.5" y="-112" font-family="Times New Roman,serif" font-size="14.00">Mobile Onboard Domain</text>
</g>
<g id="clust3" class="cluster">
<title>cluster_external_security</title>
<path fill="#fde9e7" stroke="#aa4444" stroke-width="3" stroke-dasharray="5,2" d="M1648,-859.2C1648,-859.2 1864,-859.2 1864,-859.2 1870,-859.2 1876,-865.2 1876,-871.2 1876,-871.2 1876,-981 1876,-981 1876,-987 1870,-993 1864,-993 1864,-993 1648,-993 1648,-993 1642,-993 1636,-987 1636,-981 1636,-981 1636,-871.2 1636,-871.2 1636,-865.2 1642,-859.2 1648,-859.2"/>
<text xml:space="preserve" text-anchor="middle" x="1756" y="-971.9" font-family="Arial Bold" font-size="18.00">External Security Services</text>
</g>
<g id="clust5" class="cluster">
<title>cluster_l5_enterprise</title>
<path fill="#dce6f1" fill-opacity="0.133333" stroke="#dce6f1" stroke-width="2" d="M1662,-1490.6C1662,-1490.6 2393,-1490.6 2393,-1490.6 2399,-1490.6 2405,-1496.6 2405,-1502.6 2405,-1502.6 2405,-1620.4 2405,-1620.4 2405,-1626.4 2399,-1632.4 2393,-1632.4 2393,-1632.4 1662,-1632.4 1662,-1632.4 1656,-1632.4 1650,-1626.4 1650,-1620.4 1650,-1620.4 1650,-1502.6 1650,-1502.6 1650,-1496.6 1656,-1490.6 1662,-1490.6"/>
<text xml:space="preserve" text-anchor="middle" x="2027.5" y="-1611.3" font-family="Arial Bold" font-size="18.00">L5 Enterprise</text>
</g>
<g id="clust7" class="cluster">
<title>cluster_l35_idmz</title>
<path fill="#fce5cd" fill-opacity="0.133333" stroke="#fce5cd" stroke-width="2" d="M1662,-1067C1662,-1067 2593,-1067 2593,-1067 2599,-1067 2605,-1073 2605,-1079 2605,-1079 2605,-1196.8 2605,-1196.8 2605,-1202.8 2599,-1208.8 2593,-1208.8 2593,-1208.8 1662,-1208.8 1662,-1208.8 1656,-1208.8 1650,-1202.8 1650,-1196.8 1650,-1196.8 1650,-1079 1650,-1079 1650,-1073 1656,-1067 1662,-1067"/>
<text xml:space="preserve" text-anchor="middle" x="2127.5" y="-1187.7" font-family="Arial Bold" font-size="18.00">L3.5 IDMZ</text>
</g>
<g id="clust9" class="cluster">
<title>cluster_l35_security</title>
<path fill="#fff2cc" fill-opacity="0.133333" stroke="#fff2cc" stroke-width="2" d="M1907,-855.2C1907,-855.2 3083,-855.2 3083,-855.2 3089,-855.2 3095,-861.2 3095,-867.2 3095,-867.2 3095,-985 3095,-985 3095,-991 3089,-997 3083,-997 3083,-997 1907,-997 1907,-997 1901,-997 1895,-991 1895,-985 1895,-985 1895,-867.2 1895,-867.2 1895,-861.2 1901,-855.2 1907,-855.2"/>
<text xml:space="preserve" text-anchor="middle" x="2495" y="-975.9" font-family="Arial Bold" font-size="18.00">L3.5 Security</text>
</g>
<g id="clust11" class="cluster">
<title>cluster_l3_operations</title>
<path fill="#d9eaf7" fill-opacity="0.133333" stroke="#d9eaf7" stroke-width="2" d="M1661,-643.4C1661,-643.4 2945,-643.4 2945,-643.4 2951,-643.4 2957,-649.4 2957,-655.4 2957,-655.4 2957,-773.2 2957,-773.2 2957,-779.2 2951,-785.2 2945,-785.2 2945,-785.2 1661,-785.2 1661,-785.2 1655,-785.2 1649,-779.2 1649,-773.2 1649,-773.2 1649,-655.4 1649,-655.4 1649,-649.4 1655,-643.4 1661,-643.4"/>
<text xml:space="preserve" text-anchor="middle" x="2303" y="-764.1" font-family="Arial Bold" font-size="18.00">L3 Operations</text>
</g>
<g id="clust13" class="cluster">
<title>cluster_l2</title>
<path fill="#f8f8f8" stroke="#999999" stroke-width="2" d="M1644,-413.6C1644,-413.6 2611,-413.6 2611,-413.6 2617,-413.6 2623,-419.6 2623,-425.6 2623,-425.6 2623,-605.4 2623,-605.4 2623,-611.4 2617,-617.4 2611,-617.4 2611,-617.4 1644,-617.4 1644,-617.4 1638,-617.4 1632,-611.4 1632,-605.4 1632,-605.4 1632,-425.6 1632,-425.6 1632,-419.6 1638,-413.6 1644,-413.6"/>
<text xml:space="preserve" text-anchor="middle" x="2127.5" y="-596.3" font-family="Arial Bold" font-size="18.00">L2</text>
</g>
<g id="clust15" class="cluster">
<title>cluster_l2_telecom</title>
<path fill="#d9ead3" fill-opacity="0.133333" stroke="#d9ead3" stroke-width="2" d="M1668,-437.6C1668,-437.6 2097,-437.6 2097,-437.6 2103,-437.6 2109,-443.6 2109,-449.6 2109,-449.6 2109,-552.4 2109,-552.4 2109,-558.4 2103,-564.4 2097,-564.4 2097,-564.4 1668,-564.4 1668,-564.4 1662,-564.4 1656,-558.4 1656,-552.4 1656,-552.4 1656,-449.6 1656,-449.6 1656,-443.6 1662,-437.6 1668,-437.6"/>
<text xml:space="preserve" text-anchor="middle" x="1882.5" y="-546.15" font-family="Arial Bold" font-size="15.00">L2 Telecom</text>
</g>
<g id="clust17" class="cluster">
<title>cluster_l2_interlocking</title>
<path fill="#f4cccc" fill-opacity="0.133333" stroke="#f4cccc" stroke-width="2" d="M2158,-437.6C2158,-437.6 2587,-437.6 2587,-437.6 2593,-437.6 2599,-443.6 2599,-449.6 2599,-449.6 2599,-552.4 2599,-552.4 2599,-558.4 2593,-564.4 2587,-564.4 2587,-564.4 2158,-564.4 2158,-564.4 2152,-564.4 2146,-558.4 2146,-552.4 2146,-552.4 2146,-449.6 2146,-449.6 2146,-443.6 2152,-437.6 2158,-437.6"/>
<text xml:space="preserve" text-anchor="middle" x="2372.5" y="-546.15" font-family="Arial Bold" font-size="15.00">L2 Interlocking</text>
</g>
<g id="clust19" class="cluster">
<title>cluster_l1</title>
<path fill="#f8f8f8" stroke="#999999" stroke-width="2" d="M1643,-201.8C1643,-201.8 2651,-201.8 2651,-201.8 2657,-201.8 2663,-207.8 2663,-213.8 2663,-213.8 2663,-393.6 2663,-393.6 2663,-399.6 2657,-405.6 2651,-405.6 2651,-405.6 1643,-405.6 1643,-405.6 1637,-405.6 1631,-399.6 1631,-393.6 1631,-393.6 1631,-213.8 1631,-213.8 1631,-207.8 1637,-201.8 1643,-201.8"/>
<text xml:space="preserve" text-anchor="middle" x="2147" y="-384.5" font-family="Arial Bold" font-size="18.00">L1</text>
</g>
<g id="clust21" class="cluster">
<title>cluster_l1_telecom</title>
<path fill="#b6d7a8" fill-opacity="0.133333" stroke="#b6d7a8" stroke-width="2" d="M1667,-225.8C1667,-225.8 2129,-225.8 2129,-225.8 2135,-225.8 2141,-231.8 2141,-237.8 2141,-237.8 2141,-340.6 2141,-340.6 2141,-346.6 2135,-352.6 2129,-352.6 2129,-352.6 1667,-352.6 1667,-352.6 1661,-352.6 1655,-346.6 1655,-340.6 1655,-340.6 1655,-237.8 1655,-237.8 1655,-231.8 1661,-225.8 1667,-225.8"/>
<text xml:space="preserve" text-anchor="middle" x="1898" y="-334.35" font-family="Arial Bold" font-size="15.00">L1 Telecom</text>
</g>
<g id="clust23" class="cluster">
<title>cluster_l1_interlocking</title>
<path fill="#ea9999" fill-opacity="0.133333" stroke="#ea9999" stroke-width="2" d="M2190,-225.8C2190,-225.8 2627,-225.8 2627,-225.8 2633,-225.8 2639,-231.8 2639,-237.8 2639,-237.8 2639,-340.6 2639,-340.6 2639,-346.6 2633,-352.6 2627,-352.6 2627,-352.6 2190,-352.6 2190,-352.6 2184,-352.6 2178,-346.6 2178,-340.6 2178,-340.6 2178,-237.8 2178,-237.8 2178,-231.8 2184,-225.8 2190,-225.8"/>
<text xml:space="preserve" text-anchor="middle" x="2408.5" y="-334.35" font-family="Arial Bold" font-size="15.00">L1 Interlocking</text>
</g>
<g id="clust25" class="cluster">
<title>cluster_l0_field</title>
<path fill="#e2f0d9" fill-opacity="0.133333" stroke="#e2f0d9" stroke-width="2" d="M1493,-8C1493,-8 2688,-8 2688,-8 2694,-8 2700,-14 2700,-20 2700,-20 2700,-137.8 2700,-137.8 2700,-143.8 2694,-149.8 2688,-149.8 2688,-149.8 1493,-149.8 1493,-149.8 1487,-149.8 1481,-143.8 1481,-137.8 1481,-137.8 1481,-20 1481,-20 1481,-14 1487,-8 1493,-8"/>
<text xml:space="preserve" text-anchor="middle" x="2090.5" y="-128.7" font-family="Arial Bold" font-size="18.00">L0 Field</text>
</g>
<!-- l5_enterprise_anchor -->
<!-- l4_business_anchor -->
<!-- l5_enterprise_anchor&#45;&gt;l4_business_anchor -->
<!-- ent_email_server -->
<g id="node16" class="node">
<title>ent_email_server</title>
<path fill="#dce6f1" stroke="#444444" stroke-width="2" stroke-dasharray="5,2" d="M1834.4,-1579.4C1834.4,-1579.4 1685.6,-1579.4 1685.6,-1579.4 1679.6,-1579.4 1673.6,-1573.4 1673.6,-1567.4 1673.6,-1567.4 1673.6,-1526.6 1673.6,-1526.6 1673.6,-1520.6 1679.6,-1514.6 1685.6,-1514.6 1685.6,-1514.6 1834.4,-1514.6 1834.4,-1514.6 1840.4,-1514.6 1846.4,-1520.6 1846.4,-1526.6 1846.4,-1526.6 1846.4,-1567.4 1846.4,-1567.4 1846.4,-1573.4 1840.4,-1579.4 1834.4,-1579.4"/>
<text xml:space="preserve" text-anchor="middle" x="1760" y="-1550.75" font-family="Arial" font-size="15.00">Corporate Email Server</text>
<text xml:space="preserve" text-anchor="middle" x="1760" y="-1532.75" font-family="Arial" font-size="15.00">[enterprise_server]</text>
</g>
<!-- l5_enterprise_anchor&#45;&gt;ent_email_server -->
<!-- l35_idmz_anchor -->
<!-- l4_business_anchor&#45;&gt;l35_idmz_anchor -->
<!-- l35_security_anchor -->
<!-- l35_idmz_anchor&#45;&gt;l35_security_anchor -->
<!-- idmz_firewall -->
<g id="node19" class="node">
<title>idmz_firewall</title>
<path fill="#fce5cd" stroke="#444444" stroke-width="2" stroke-dasharray="5,2" d="M1834.4,-1155.8C1834.4,-1155.8 1685.6,-1155.8 1685.6,-1155.8 1679.6,-1155.8 1673.6,-1149.8 1673.6,-1143.8 1673.6,-1143.8 1673.6,-1103 1673.6,-1103 1673.6,-1097 1679.6,-1091 1685.6,-1091 1685.6,-1091 1834.4,-1091 1834.4,-1091 1840.4,-1091 1846.4,-1097 1846.4,-1103 1846.4,-1103 1846.4,-1143.8 1846.4,-1143.8 1846.4,-1149.8 1840.4,-1155.8 1834.4,-1155.8"/>
<text xml:space="preserve" text-anchor="middle" x="1760" y="-1127.15" font-family="Arial" font-size="15.00">IDMZ Firewall</text>
<text xml:space="preserve" text-anchor="middle" x="1760" y="-1109.15" font-family="Arial" font-size="15.00">[firewall]</text>
</g>
<!-- l35_idmz_anchor&#45;&gt;idmz_firewall -->
<!-- l3_operations_anchor -->
<!-- l35_security_anchor&#45;&gt;l3_operations_anchor -->
<!-- ext_kms_server -->
<g id="node15" class="node">
<title>ext_kms_server</title>
<path fill="#fff2cc" stroke="#444444" stroke-width="2" stroke-dasharray="5,2" d="M1834.4,-944C1834.4,-944 1685.6,-944 1685.6,-944 1679.6,-944 1673.6,-938 1673.6,-932 1673.6,-932 1673.6,-891.2 1673.6,-891.2 1673.6,-885.2 1679.6,-879.2 1685.6,-879.2 1685.6,-879.2 1834.4,-879.2 1834.4,-879.2 1840.4,-879.2 1846.4,-885.2 1846.4,-891.2 1846.4,-891.2 1846.4,-932 1846.4,-932 1846.4,-938 1840.4,-944 1834.4,-944"/>
<text xml:space="preserve" text-anchor="middle" x="1760" y="-915.35" font-family="Arial" font-size="15.00">External KMS Server</text>
<text xml:space="preserve" text-anchor="middle" x="1760" y="-897.35" font-family="Arial" font-size="15.00">[external_kms_server]</text>
</g>
<!-- l35_security_anchor&#45;&gt;ext_kms_server -->
<!-- sec_siem -->
<g id="node23" class="node">
<title>sec_siem</title>
<path fill="#fff2cc" stroke="#444444" stroke-width="2" d="M2079.4,-944C2079.4,-944 1930.6,-944 1930.6,-944 1924.6,-944 1918.6,-938 1918.6,-932 1918.6,-932 1918.6,-891.2 1918.6,-891.2 1918.6,-885.2 1924.6,-879.2 1930.6,-879.2 1930.6,-879.2 2079.4,-879.2 2079.4,-879.2 2085.4,-879.2 2091.4,-885.2 2091.4,-891.2 2091.4,-891.2 2091.4,-932 2091.4,-932 2091.4,-938 2085.4,-944 2079.4,-944"/>
<text xml:space="preserve" text-anchor="middle" x="2005" y="-915.35" font-family="Arial" font-size="15.00">SIEM</text>
<text xml:space="preserve" text-anchor="middle" x="2005" y="-897.35" font-family="Arial" font-size="15.00">[siem]</text>
</g>
<!-- l35_security_anchor&#45;&gt;sec_siem -->
<!-- l2_anchor -->
<!-- l3_operations_anchor&#45;&gt;l2_anchor -->
<!-- ops_tms -->
<g id="node28" class="node">
<title>ops_tms</title>
<path fill="#d9eaf7" stroke="#444444" stroke-width="2" d="M1864.75,-732.2C1864.75,-732.2 1685.25,-732.2 1685.25,-732.2 1679.25,-732.2 1673.25,-726.2 1673.25,-720.2 1673.25,-720.2 1673.25,-679.4 1673.25,-679.4 1673.25,-673.4 1679.25,-667.4 1685.25,-667.4 1685.25,-667.4 1864.75,-667.4 1864.75,-667.4 1870.75,-667.4 1876.75,-673.4 1876.75,-679.4 1876.75,-679.4 1876.75,-720.2 1876.75,-720.2 1876.75,-726.2 1870.75,-732.2 1864.75,-732.2"/>
<text xml:space="preserve" text-anchor="middle" x="1775" y="-703.55" font-family="Arial" font-size="15.00">Traffic Management System</text>
<text xml:space="preserve" text-anchor="middle" x="1775" y="-685.55" font-family="Arial" font-size="15.00">[tms]</text>
</g>
<!-- l3_operations_anchor&#45;&gt;ops_tms -->
<!-- l1_anchor -->
<!-- l2_anchor&#45;&gt;l1_anchor -->
<!-- telecom_mpls_router -->
<g id="node33" class="node">
<title>telecom_mpls_router</title>
<path fill="#d9ead3" stroke="#444444" stroke-width="2" d="M1834.4,-520.4C1834.4,-520.4 1685.6,-520.4 1685.6,-520.4 1679.6,-520.4 1673.6,-514.4 1673.6,-508.4 1673.6,-508.4 1673.6,-467.6 1673.6,-467.6 1673.6,-461.6 1679.6,-455.6 1685.6,-455.6 1685.6,-455.6 1834.4,-455.6 1834.4,-455.6 1840.4,-455.6 1846.4,-461.6 1846.4,-467.6 1846.4,-467.6 1846.4,-508.4 1846.4,-508.4 1846.4,-514.4 1840.4,-520.4 1834.4,-520.4"/>
<text xml:space="preserve" text-anchor="middle" x="1760" y="-491.75" font-family="Arial" font-size="15.00">MPLS Router</text>
<text xml:space="preserve" text-anchor="middle" x="1760" y="-473.75" font-family="Arial" font-size="15.00">[mpls_router]</text>
</g>
<!-- l2_anchor&#45;&gt;telecom_mpls_router -->
<!-- l0_field_anchor -->
<!-- l1_anchor&#45;&gt;l0_field_anchor -->
<!-- radio_base_station -->
<g id="node37" class="node">
<title>radio_base_station</title>
<path fill="#b6d7a8" stroke="#7a3db8" stroke-width="2" stroke-dasharray="5,2" d="M1866.5,-308.6C1866.5,-308.6 1685.5,-308.6 1685.5,-308.6 1679.5,-308.6 1673.5,-302.6 1673.5,-296.6 1673.5,-296.6 1673.5,-255.8 1673.5,-255.8 1673.5,-249.8 1679.5,-243.8 1685.5,-243.8 1685.5,-243.8 1866.5,-243.8 1866.5,-243.8 1872.5,-243.8 1878.5,-249.8 1878.5,-255.8 1878.5,-255.8 1878.5,-296.6 1878.5,-296.6 1878.5,-302.6 1872.5,-308.6 1866.5,-308.6"/>
<text xml:space="preserve" text-anchor="middle" x="1776" y="-279.95" font-family="Arial" font-size="15.00">Railway Radio Base Station</text>
<text xml:space="preserve" text-anchor="middle" x="1776" y="-261.95" font-family="Arial" font-size="15.00">[railway_radio_base_station]</text>
</g>
<!-- l1_anchor&#45;&gt;radio_base_station -->
<!-- l_kavach -->
<g id="node9" class="node">
<title>l_kavach</title>
<path fill="#d9c2e9" stroke="#7a3db8" stroke-width="2" d="M176.4,-96.8C176.4,-96.8 27.6,-96.8 27.6,-96.8 21.6,-96.8 15.6,-90.8 15.6,-84.8 15.6,-84.8 15.6,-44 15.6,-44 15.6,-38 21.6,-32 27.6,-32 27.6,-32 176.4,-32 176.4,-32 182.4,-32 188.4,-38 188.4,-44 188.4,-44 188.4,-84.8 188.4,-84.8 188.4,-90.8 182.4,-96.8 176.4,-96.8"/>
<text xml:space="preserve" text-anchor="middle" x="102" y="-68.15" font-family="Arial" font-size="15.00">Locomotive Kavach</text>
<text xml:space="preserve" text-anchor="middle" x="102" y="-50.15" font-family="Arial" font-size="15.00">[l_kavach]</text>
</g>
<!-- l0_field_anchor&#45;&gt;l_kavach -->
<!-- point_machine_controller -->
<g id="node41" class="node">
<title>point_machine_controller</title>
<path fill="#e2f0d9" stroke="#444444" stroke-width="2" d="M1684.75,-96.8C1684.75,-96.8 1517.25,-96.8 1517.25,-96.8 1511.25,-96.8 1505.25,-90.8 1505.25,-84.8 1505.25,-84.8 1505.25,-44 1505.25,-44 1505.25,-38 1511.25,-32 1517.25,-32 1517.25,-32 1684.75,-32 1684.75,-32 1690.75,-32 1696.75,-38 1696.75,-44 1696.75,-44 1696.75,-84.8 1696.75,-84.8 1696.75,-90.8 1690.75,-96.8 1684.75,-96.8"/>
<text xml:space="preserve" text-anchor="middle" x="1601" y="-68.15" font-family="Arial" font-size="15.00">Point Machine Controller</text>
<text xml:space="preserve" text-anchor="middle" x="1601" y="-50.15" font-family="Arial" font-size="15.00">[point_machine_controller]</text>
</g>
<!-- l0_field_anchor&#45;&gt;point_machine_controller -->
<!-- train_radio -->
<g id="node10" class="node">
<title>train_radio</title>
<path fill="#d9c2e9" stroke="#7a3db8" stroke-width="2" d="M421.4,-96.8C421.4,-96.8 272.6,-96.8 272.6,-96.8 266.6,-96.8 260.6,-90.8 260.6,-84.8 260.6,-84.8 260.6,-44 260.6,-44 260.6,-38 266.6,-32 272.6,-32 272.6,-32 421.4,-32 421.4,-32 427.4,-32 433.4,-38 433.4,-44 433.4,-44 433.4,-84.8 433.4,-84.8 433.4,-90.8 427.4,-96.8 421.4,-96.8"/>
<text xml:space="preserve" text-anchor="middle" x="347" y="-68.15" font-family="Arial" font-size="15.00">Train Radio</text>
<text xml:space="preserve" text-anchor="middle" x="347" y="-50.15" font-family="Arial" font-size="15.00">[train_radio]</text>
</g>
<!-- driver_machine_interface -->
<g id="node11" class="node">
<title>driver_machine_interface</title>
<path fill="#d9c2e9" stroke="#444444" stroke-width="2" d="M686.5,-96.8C686.5,-96.8 517.5,-96.8 517.5,-96.8 511.5,-96.8 505.5,-90.8 505.5,-84.8 505.5,-84.8 505.5,-44 505.5,-44 505.5,-38 511.5,-32 517.5,-32 517.5,-32 686.5,-32 686.5,-32 692.5,-32 698.5,-38 698.5,-44 698.5,-44 698.5,-84.8 698.5,-84.8 698.5,-90.8 692.5,-96.8 686.5,-96.8"/>
<text xml:space="preserve" text-anchor="middle" x="602" y="-68.15" font-family="Arial" font-size="15.00">Driver Machine Interface</text>
<text xml:space="preserve" text-anchor="middle" x="602" y="-50.15" font-family="Arial" font-size="15.00">[driver_machine_interface]</text>
</g>
<!-- brake_interface_unit -->
<g id="node12" class="node">
<title>brake_interface_unit</title>
<path fill="#d9c2e9" stroke="#444444" stroke-width="2" d="M931.4,-96.8C931.4,-96.8 782.6,-96.8 782.6,-96.8 776.6,-96.8 770.6,-90.8 770.6,-84.8 770.6,-84.8 770.6,-44 770.6,-44 770.6,-38 776.6,-32 782.6,-32 782.6,-32 931.4,-32 931.4,-32 937.4,-32 943.4,-38 943.4,-44 943.4,-44 943.4,-84.8 943.4,-84.8 943.4,-90.8 937.4,-96.8 931.4,-96.8"/>
<text xml:space="preserve" text-anchor="middle" x="857" y="-68.15" font-family="Arial" font-size="15.00">Brake Interface Unit</text>
<text xml:space="preserve" text-anchor="middle" x="857" y="-50.15" font-family="Arial" font-size="15.00">[brake_interface_unit]</text>
</g>
<!-- speed_sensor -->
<g id="node13" class="node">
<title>speed_sensor</title>
<path fill="#d9c2e9" stroke="#444444" stroke-width="2" d="M1176.4,-96.8C1176.4,-96.8 1027.6,-96.8 1027.6,-96.8 1021.6,-96.8 1015.6,-90.8 1015.6,-84.8 1015.6,-84.8 1015.6,-44 1015.6,-44 1015.6,-38 1021.6,-32 1027.6,-32 1027.6,-32 1176.4,-32 1176.4,-32 1182.4,-32 1188.4,-38 1188.4,-44 1188.4,-44 1188.4,-84.8 1188.4,-84.8 1188.4,-90.8 1182.4,-96.8 1176.4,-96.8"/>
<text xml:space="preserve" text-anchor="middle" x="1102" y="-68.15" font-family="Arial" font-size="15.00">Speed Sensor</text>
<text xml:space="preserve" text-anchor="middle" x="1102" y="-50.15" font-family="Arial" font-size="15.00">[speed_sensor]</text>
</g>
<!-- onboard_rfid_reader -->
<g id="node14" class="node">
<title>onboard_rfid_reader</title>
<path fill="#d9c2e9" stroke="#444444" stroke-width="2" d="M1421.4,-96.8C1421.4,-96.8 1272.6,-96.8 1272.6,-96.8 1266.6,-96.8 1260.6,-90.8 1260.6,-84.8 1260.6,-84.8 1260.6,-44 1260.6,-44 1260.6,-38 1266.6,-32 1272.6,-32 1272.6,-32 1421.4,-32 1421.4,-32 1427.4,-32 1433.4,-38 1433.4,-44 1433.4,-44 1433.4,-84.8 1433.4,-84.8 1433.4,-90.8 1427.4,-96.8 1421.4,-96.8"/>
<text xml:space="preserve" text-anchor="middle" x="1347" y="-68.15" font-family="Arial" font-size="15.00">Onboard RFID Reader</text>
<text xml:space="preserve" text-anchor="middle" x="1347" y="-50.15" font-family="Arial" font-size="15.00">[onboard_rfid_reader]</text>
</g>
<!-- ent_erp_server -->
<g id="node17" class="node">
<title>ent_erp_server</title>
<path fill="#dce6f1" stroke="#444444" stroke-width="2" stroke-dasharray="5,2" d="M2079.4,-1579.4C2079.4,-1579.4 1930.6,-1579.4 1930.6,-1579.4 1924.6,-1579.4 1918.6,-1573.4 1918.6,-1567.4 1918.6,-1567.4 1918.6,-1526.6 1918.6,-1526.6 1918.6,-1520.6 1924.6,-1514.6 1930.6,-1514.6 1930.6,-1514.6 2079.4,-1514.6 2079.4,-1514.6 2085.4,-1514.6 2091.4,-1520.6 2091.4,-1526.6 2091.4,-1526.6 2091.4,-1567.4 2091.4,-1567.4 2091.4,-1573.4 2085.4,-1579.4 2079.4,-1579.4"/>
<text xml:space="preserve" text-anchor="middle" x="2005" y="-1550.75" font-family="Arial" font-size="15.00">ERP System</text>
<text xml:space="preserve" text-anchor="middle" x="2005" y="-1532.75" font-family="Arial" font-size="15.00">[enterprise_server]</text>
</g>
<!-- ent_email_server&#45;&gt;ent_erp_server -->
<!-- ent_eam_server -->
<g id="node18" class="node">
<title>ent_eam_server</title>
<path fill="#dce6f1" stroke="#444444" stroke-width="2" stroke-dasharray="5,2" d="M2368.5,-1579.4C2368.5,-1579.4 2175.5,-1579.4 2175.5,-1579.4 2169.5,-1579.4 2163.5,-1573.4 2163.5,-1567.4 2163.5,-1567.4 2163.5,-1526.6 2163.5,-1526.6 2163.5,-1520.6 2169.5,-1514.6 2175.5,-1514.6 2175.5,-1514.6 2368.5,-1514.6 2368.5,-1514.6 2374.5,-1514.6 2380.5,-1520.6 2380.5,-1526.6 2380.5,-1526.6 2380.5,-1567.4 2380.5,-1567.4 2380.5,-1573.4 2374.5,-1579.4 2368.5,-1579.4"/>
<text xml:space="preserve" text-anchor="middle" x="2272" y="-1550.75" font-family="Arial" font-size="15.00">Enterprise Asset Management</text>
<text xml:space="preserve" text-anchor="middle" x="2272" y="-1532.75" font-family="Arial" font-size="15.00">[enterprise_server]</text>
</g>
<!-- ent_erp_server&#45;&gt;ent_eam_server -->
<!-- idmz_vpn_gateway -->
<g id="node20" class="node">
<title>idmz_vpn_gateway</title>
<path fill="#fce5cd" stroke="#444444" stroke-width="2" stroke-dasharray="5,2" d="M2079.4,-1155.8C2079.4,-1155.8 1930.6,-1155.8 1930.6,-1155.8 1924.6,-1155.8 1918.6,-1149.8 1918.6,-1143.8 1918.6,-1143.8 1918.6,-1103 1918.6,-1103 1918.6,-1097 1924.6,-1091 1930.6,-1091 1930.6,-1091 2079.4,-1091 2079.4,-1091 2085.4,-1091 2091.4,-1097 2091.4,-1103 2091.4,-1103 2091.4,-1143.8 2091.4,-1143.8 2091.4,-1149.8 2085.4,-1155.8 2079.4,-1155.8"/>
<text xml:space="preserve" text-anchor="middle" x="2005" y="-1127.15" font-family="Arial" font-size="15.00">VPN Gateway</text>
<text xml:space="preserve" text-anchor="middle" x="2005" y="-1109.15" font-family="Arial" font-size="15.00">[vpn_gateway]</text>
</g>
<!-- idmz_firewall&#45;&gt;idmz_vpn_gateway -->
<!-- idmz_jump_host -->
<g id="node21" class="node">
<title>idmz_jump_host</title>
<path fill="#fce5cd" stroke="#444444" stroke-width="2" stroke-dasharray="5,2" d="M2324.4,-1155.8C2324.4,-1155.8 2175.6,-1155.8 2175.6,-1155.8 2169.6,-1155.8 2163.6,-1149.8 2163.6,-1143.8 2163.6,-1143.8 2163.6,-1103 2163.6,-1103 2163.6,-1097 2169.6,-1091 2175.6,-1091 2175.6,-1091 2324.4,-1091 2324.4,-1091 2330.4,-1091 2336.4,-1097 2336.4,-1103 2336.4,-1103 2336.4,-1143.8 2336.4,-1143.8 2336.4,-1149.8 2330.4,-1155.8 2324.4,-1155.8"/>
<text xml:space="preserve" text-anchor="middle" x="2250" y="-1127.15" font-family="Arial" font-size="15.00">Jump Host</text>
<text xml:space="preserve" text-anchor="middle" x="2250" y="-1109.15" font-family="Arial" font-size="15.00">[jump_host]</text>
</g>
<!-- idmz_vpn_gateway&#45;&gt;idmz_jump_host -->
<!-- idmz_data_diode -->
<g id="node22" class="node">
<title>idmz_data_diode</title>
<path fill="#fce5cd" stroke="#444444" stroke-width="2" stroke-dasharray="5,2" d="M2569.4,-1155.8C2569.4,-1155.8 2420.6,-1155.8 2420.6,-1155.8 2414.6,-1155.8 2408.6,-1149.8 2408.6,-1143.8 2408.6,-1143.8 2408.6,-1103 2408.6,-1103 2408.6,-1097 2414.6,-1091 2420.6,-1091 2420.6,-1091 2569.4,-1091 2569.4,-1091 2575.4,-1091 2581.4,-1097 2581.4,-1103 2581.4,-1103 2581.4,-1143.8 2581.4,-1143.8 2581.4,-1149.8 2575.4,-1155.8 2569.4,-1155.8"/>
<text xml:space="preserve" text-anchor="middle" x="2495" y="-1127.15" font-family="Arial" font-size="15.00">Data Diode</text>
<text xml:space="preserve" text-anchor="middle" x="2495" y="-1109.15" font-family="Arial" font-size="15.00">[data_diode]</text>
</g>
<!-- idmz_jump_host&#45;&gt;idmz_data_diode -->
<!-- sec_soc_server -->
<g id="node24" class="node">
<title>sec_soc_server</title>
<path fill="#fff2cc" stroke="#444444" stroke-width="2" d="M2324.4,-944C2324.4,-944 2175.6,-944 2175.6,-944 2169.6,-944 2163.6,-938 2163.6,-932 2163.6,-932 2163.6,-891.2 2163.6,-891.2 2163.6,-885.2 2169.6,-879.2 2175.6,-879.2 2175.6,-879.2 2324.4,-879.2 2324.4,-879.2 2330.4,-879.2 2336.4,-885.2 2336.4,-891.2 2336.4,-891.2 2336.4,-932 2336.4,-932 2336.4,-938 2330.4,-944 2324.4,-944"/>
<text xml:space="preserve" text-anchor="middle" x="2250" y="-915.35" font-family="Arial" font-size="15.00">SOC Server</text>
<text xml:space="preserve" text-anchor="middle" x="2250" y="-897.35" font-family="Arial" font-size="15.00">[soc_server]</text>
</g>
<!-- sec_siem&#45;&gt;sec_soc_server -->
<!-- sec_ids_sensor -->
<g id="node25" class="node">
<title>sec_ids_sensor</title>
<path fill="#fff2cc" stroke="#444444" stroke-width="2" d="M2569.4,-944C2569.4,-944 2420.6,-944 2420.6,-944 2414.6,-944 2408.6,-938 2408.6,-932 2408.6,-932 2408.6,-891.2 2408.6,-891.2 2408.6,-885.2 2414.6,-879.2 2420.6,-879.2 2420.6,-879.2 2569.4,-879.2 2569.4,-879.2 2575.4,-879.2 2581.4,-885.2 2581.4,-891.2 2581.4,-891.2 2581.4,-932 2581.4,-932 2581.4,-938 2575.4,-944 2569.4,-944"/>
<text xml:space="preserve" text-anchor="middle" x="2495" y="-915.35" font-family="Arial" font-size="15.00">IDS Sensor</text>
<text xml:space="preserve" text-anchor="middle" x="2495" y="-897.35" font-family="Arial" font-size="15.00">[ids_sensor]</text>
</g>
<!-- sec_soc_server&#45;&gt;sec_ids_sensor -->
<!-- sec_ips_sensor -->
<g id="node26" class="node">
<title>sec_ips_sensor</title>
<path fill="#fff2cc" stroke="#444444" stroke-width="2" d="M2814.4,-944C2814.4,-944 2665.6,-944 2665.6,-944 2659.6,-944 2653.6,-938 2653.6,-932 2653.6,-932 2653.6,-891.2 2653.6,-891.2 2653.6,-885.2 2659.6,-879.2 2665.6,-879.2 2665.6,-879.2 2814.4,-879.2 2814.4,-879.2 2820.4,-879.2 2826.4,-885.2 2826.4,-891.2 2826.4,-891.2 2826.4,-932 2826.4,-932 2826.4,-938 2820.4,-944 2814.4,-944"/>
<text xml:space="preserve" text-anchor="middle" x="2740" y="-915.35" font-family="Arial" font-size="15.00">IPS Sensor</text>
<text xml:space="preserve" text-anchor="middle" x="2740" y="-897.35" font-family="Arial" font-size="15.00">[ips_sensor]</text>
</g>
<!-- sec_ids_sensor&#45;&gt;sec_ips_sensor -->
<!-- sec_vuln_scanner -->
<g id="node27" class="node">
<title>sec_vuln_scanner</title>
<path fill="#fff2cc" stroke="#444444" stroke-width="2" d="M3059.4,-944C3059.4,-944 2910.6,-944 2910.6,-944 2904.6,-944 2898.6,-938 2898.6,-932 2898.6,-932 2898.6,-891.2 2898.6,-891.2 2898.6,-885.2 2904.6,-879.2 2910.6,-879.2 2910.6,-879.2 3059.4,-879.2 3059.4,-879.2 3065.4,-879.2 3071.4,-885.2 3071.4,-891.2 3071.4,-891.2 3071.4,-932 3071.4,-932 3071.4,-938 3065.4,-944 3059.4,-944"/>
<text xml:space="preserve" text-anchor="middle" x="2985" y="-915.35" font-family="Arial" font-size="15.00">Vulnerability Scanner</text>
<text xml:space="preserve" text-anchor="middle" x="2985" y="-897.35" font-family="Arial" font-size="15.00">[vulnerability_scanner]</text>
</g>
<!-- sec_ips_sensor&#45;&gt;sec_vuln_scanner -->
<!-- sec_vuln_scanner&#45;&gt;ext_kms_server -->
<!-- ops_nms -->
<g id="node29" class="node">
<title>ops_nms</title>
<path fill="#d9eaf7" stroke="#444444" stroke-width="2" d="M2154.88,-732.2C2154.88,-732.2 1961.12,-732.2 1961.12,-732.2 1955.12,-732.2 1949.12,-726.2 1949.12,-720.2 1949.12,-720.2 1949.12,-679.4 1949.12,-679.4 1949.12,-673.4 1955.12,-667.4 1961.12,-667.4 1961.12,-667.4 2154.88,-667.4 2154.88,-667.4 2160.88,-667.4 2166.88,-673.4 2166.88,-679.4 2166.88,-679.4 2166.88,-720.2 2166.88,-720.2 2166.88,-726.2 2160.88,-732.2 2154.88,-732.2"/>
<text xml:space="preserve" text-anchor="middle" x="2058" y="-703.55" font-family="Arial" font-size="15.00">Network Management System</text>
<text xml:space="preserve" text-anchor="middle" x="2058" y="-685.55" font-family="Arial" font-size="15.00">[nms]</text>
</g>
<!-- ops_tms&#45;&gt;ops_nms -->
<!-- ops_workstation -->
<g id="node30" class="node">
<title>ops_workstation</title>
<path fill="#d9eaf7" stroke="#444444" stroke-width="2" d="M2405.38,-732.2C2405.38,-732.2 2250.62,-732.2 2250.62,-732.2 2244.62,-732.2 2238.62,-726.2 2238.62,-720.2 2238.62,-720.2 2238.62,-679.4 2238.62,-679.4 2238.62,-673.4 2244.62,-667.4 2250.62,-667.4 2250.62,-667.4 2405.38,-667.4 2405.38,-667.4 2411.38,-667.4 2417.38,-673.4 2417.38,-679.4 2417.38,-679.4 2417.38,-720.2 2417.38,-720.2 2417.38,-726.2 2411.38,-732.2 2405.38,-732.2"/>
<text xml:space="preserve" text-anchor="middle" x="2328" y="-703.55" font-family="Arial" font-size="15.00">Operations Workstation</text>
<text xml:space="preserve" text-anchor="middle" x="2328" y="-685.55" font-family="Arial" font-size="15.00">[operations_workstation]</text>
</g>
<!-- ops_nms&#45;&gt;ops_workstation -->
<!-- maint_workstation -->
<g id="node31" class="node">
<title>maint_workstation</title>
<path fill="#d9eaf7" stroke="#444444" stroke-width="2" d="M2662.75,-732.2C2662.75,-732.2 2501.25,-732.2 2501.25,-732.2 2495.25,-732.2 2489.25,-726.2 2489.25,-720.2 2489.25,-720.2 2489.25,-679.4 2489.25,-679.4 2489.25,-673.4 2495.25,-667.4 2501.25,-667.4 2501.25,-667.4 2662.75,-667.4 2662.75,-667.4 2668.75,-667.4 2674.75,-673.4 2674.75,-679.4 2674.75,-679.4 2674.75,-720.2 2674.75,-720.2 2674.75,-726.2 2668.75,-732.2 2662.75,-732.2"/>
<text xml:space="preserve" text-anchor="middle" x="2582" y="-703.55" font-family="Arial" font-size="15.00">Maintenance Workstation</text>
<text xml:space="preserve" text-anchor="middle" x="2582" y="-685.55" font-family="Arial" font-size="15.00">[operations_workstation]</text>
</g>
<!-- ops_workstation&#45;&gt;maint_workstation -->
<!-- eng_workstation -->
<g id="node32" class="node">
<title>eng_workstation</title>
<path fill="#d9eaf7" stroke="#444444" stroke-width="2" d="M2921.12,-732.2C2921.12,-732.2 2758.88,-732.2 2758.88,-732.2 2752.88,-732.2 2746.88,-726.2 2746.88,-720.2 2746.88,-720.2 2746.88,-679.4 2746.88,-679.4 2746.88,-673.4 2752.88,-667.4 2758.88,-667.4 2758.88,-667.4 2921.12,-667.4 2921.12,-667.4 2927.12,-667.4 2933.12,-673.4 2933.12,-679.4 2933.12,-679.4 2933.12,-720.2 2933.12,-720.2 2933.12,-726.2 2927.12,-732.2 2921.12,-732.2"/>
<text xml:space="preserve" text-anchor="middle" x="2840" y="-703.55" font-family="Arial" font-size="15.00">Engineering Workstation</text>
<text xml:space="preserve" text-anchor="middle" x="2840" y="-685.55" font-family="Arial" font-size="15.00">[engineering_workstation]</text>
</g>
<!-- maint_workstation&#45;&gt;eng_workstation -->
<!-- telecom_gateway -->
<g id="node34" class="node">
<title>telecom_gateway</title>
<path fill="#d9ead3" stroke="#444444" stroke-width="2" d="M2079.4,-520.4C2079.4,-520.4 1930.6,-520.4 1930.6,-520.4 1924.6,-520.4 1918.6,-514.4 1918.6,-508.4 1918.6,-508.4 1918.6,-467.6 1918.6,-467.6 1918.6,-461.6 1924.6,-455.6 1930.6,-455.6 1930.6,-455.6 2079.4,-455.6 2079.4,-455.6 2085.4,-455.6 2091.4,-461.6 2091.4,-467.6 2091.4,-467.6 2091.4,-508.4 2091.4,-508.4 2091.4,-514.4 2085.4,-520.4 2079.4,-520.4"/>
<text xml:space="preserve" text-anchor="middle" x="2005" y="-491.75" font-family="Arial" font-size="15.00">Telecom Gateway</text>
<text xml:space="preserve" text-anchor="middle" x="2005" y="-473.75" font-family="Arial" font-size="15.00">[telecom_gateway]</text>
</g>
<!-- telecom_mpls_router&#45;&gt;telecom_gateway -->
<!-- s_kavach -->
<g id="node35" class="node">
<title>s_kavach</title>
<path fill="#f4cccc" stroke="#7a3db8" stroke-width="2" d="M2324.4,-520.4C2324.4,-520.4 2175.6,-520.4 2175.6,-520.4 2169.6,-520.4 2163.6,-514.4 2163.6,-508.4 2163.6,-508.4 2163.6,-467.6 2163.6,-467.6 2163.6,-461.6 2169.6,-455.6 2175.6,-455.6 2175.6,-455.6 2324.4,-455.6 2324.4,-455.6 2330.4,-455.6 2336.4,-461.6 2336.4,-467.6 2336.4,-467.6 2336.4,-508.4 2336.4,-508.4 2336.4,-514.4 2330.4,-520.4 2324.4,-520.4"/>
<text xml:space="preserve" text-anchor="middle" x="2250" y="-491.75" font-family="Arial" font-size="15.00">Stationary Kavach</text>
<text xml:space="preserve" text-anchor="middle" x="2250" y="-473.75" font-family="Arial" font-size="15.00">[s_kavach]</text>
</g>
<!-- electronic_interlocking -->
<g id="node36" class="node">
<title>electronic_interlocking</title>
<path fill="#f4cccc" stroke="#444444" stroke-width="2" d="M2569.4,-520.4C2569.4,-520.4 2420.6,-520.4 2420.6,-520.4 2414.6,-520.4 2408.6,-514.4 2408.6,-508.4 2408.6,-508.4 2408.6,-467.6 2408.6,-467.6 2408.6,-461.6 2414.6,-455.6 2420.6,-455.6 2420.6,-455.6 2569.4,-455.6 2569.4,-455.6 2575.4,-455.6 2581.4,-461.6 2581.4,-467.6 2581.4,-467.6 2581.4,-508.4 2581.4,-508.4 2581.4,-514.4 2575.4,-520.4 2569.4,-520.4"/>
<text xml:space="preserve" text-anchor="middle" x="2495" y="-491.75" font-family="Arial" font-size="15.00">Electronic Interlocking</text>
<text xml:space="preserve" text-anchor="middle" x="2495" y="-473.75" font-family="Arial" font-size="15.00">[electronic_interlocking]</text>
</g>
<!-- s_kavach&#45;&gt;electronic_interlocking -->
<!-- radio_gateway -->
<g id="node38" class="node">
<title>radio_gateway</title>
<path fill="#b6d7a8" stroke="#7a3db8" stroke-width="2" stroke-dasharray="5,2" d="M2111.4,-308.6C2111.4,-308.6 1962.6,-308.6 1962.6,-308.6 1956.6,-308.6 1950.6,-302.6 1950.6,-296.6 1950.6,-296.6 1950.6,-255.8 1950.6,-255.8 1950.6,-249.8 1956.6,-243.8 1962.6,-243.8 1962.6,-243.8 2111.4,-243.8 2111.4,-243.8 2117.4,-243.8 2123.4,-249.8 2123.4,-255.8 2123.4,-255.8 2123.4,-296.6 2123.4,-296.6 2123.4,-302.6 2117.4,-308.6 2111.4,-308.6"/>
<text xml:space="preserve" text-anchor="middle" x="2037" y="-279.95" font-family="Arial" font-size="15.00">Radio Gateway</text>
<text xml:space="preserve" text-anchor="middle" x="2037" y="-261.95" font-family="Arial" font-size="15.00">[radio_gateway]</text>
</g>
<!-- radio_base_station&#45;&gt;radio_gateway -->
<!-- axle_counter_evaluator -->
<g id="node39" class="node">
<title>axle_counter_evaluator</title>
<path fill="#ea9999" stroke="#444444" stroke-width="2" d="M2364.12,-308.6C2364.12,-308.6 2207.88,-308.6 2207.88,-308.6 2201.88,-308.6 2195.88,-302.6 2195.88,-296.6 2195.88,-296.6 2195.88,-255.8 2195.88,-255.8 2195.88,-249.8 2201.88,-243.8 2207.88,-243.8 2207.88,-243.8 2364.12,-243.8 2364.12,-243.8 2370.12,-243.8 2376.12,-249.8 2376.12,-255.8 2376.12,-255.8 2376.12,-296.6 2376.12,-296.6 2376.12,-302.6 2370.12,-308.6 2364.12,-308.6"/>
<text xml:space="preserve" text-anchor="middle" x="2286" y="-279.95" font-family="Arial" font-size="15.00">Axle Counter Evaluator</text>
<text xml:space="preserve" text-anchor="middle" x="2286" y="-261.95" font-family="Arial" font-size="15.00">[axle_counter_evaluator]</text>
</g>
<!-- object_controller -->
<g id="node40" class="node">
<title>object_controller</title>
<path fill="#ea9999" stroke="#444444" stroke-width="2" d="M2609.4,-308.6C2609.4,-308.6 2460.6,-308.6 2460.6,-308.6 2454.6,-308.6 2448.6,-302.6 2448.6,-296.6 2448.6,-296.6 2448.6,-255.8 2448.6,-255.8 2448.6,-249.8 2454.6,-243.8 2460.6,-243.8 2460.6,-243.8 2609.4,-243.8 2609.4,-243.8 2615.4,-243.8 2621.4,-249.8 2621.4,-255.8 2621.4,-255.8 2621.4,-296.6 2621.4,-296.6 2621.4,-302.6 2615.4,-308.6 2609.4,-308.6"/>
<text xml:space="preserve" text-anchor="middle" x="2535" y="-279.95" font-family="Arial" font-size="15.00">Object Controller</text>
<text xml:space="preserve" text-anchor="middle" x="2535" y="-261.95" font-family="Arial" font-size="15.00">[object_controller]</text>
</g>
<!-- axle_counter_evaluator&#45;&gt;object_controller -->
<!-- signal_controller -->
<g id="node42" class="node">
<title>signal_controller</title>
<path fill="#e2f0d9" stroke="#444444" stroke-width="2" d="M1929.4,-96.8C1929.4,-96.8 1780.6,-96.8 1780.6,-96.8 1774.6,-96.8 1768.6,-90.8 1768.6,-84.8 1768.6,-84.8 1768.6,-44 1768.6,-44 1768.6,-38 1774.6,-32 1780.6,-32 1780.6,-32 1929.4,-32 1929.4,-32 1935.4,-32 1941.4,-38 1941.4,-44 1941.4,-44 1941.4,-84.8 1941.4,-84.8 1941.4,-90.8 1935.4,-96.8 1929.4,-96.8"/>
<text xml:space="preserve" text-anchor="middle" x="1855" y="-68.15" font-family="Arial" font-size="15.00">Signal Controller</text>
<text xml:space="preserve" text-anchor="middle" x="1855" y="-50.15" font-family="Arial" font-size="15.00">[signal_controller]</text>
</g>
<!-- point_machine_controller&#45;&gt;signal_controller -->
<!-- track_circuit -->
<g id="node43" class="node">
<title>track_circuit</title>
<path fill="#e2f0d9" stroke="#444444" stroke-width="2" d="M2174.4,-96.8C2174.4,-96.8 2025.6,-96.8 2025.6,-96.8 2019.6,-96.8 2013.6,-90.8 2013.6,-84.8 2013.6,-84.8 2013.6,-44 2013.6,-44 2013.6,-38 2019.6,-32 2025.6,-32 2025.6,-32 2174.4,-32 2174.4,-32 2180.4,-32 2186.4,-38 2186.4,-44 2186.4,-44 2186.4,-84.8 2186.4,-84.8 2186.4,-90.8 2180.4,-96.8 2174.4,-96.8"/>
<text xml:space="preserve" text-anchor="middle" x="2100" y="-68.15" font-family="Arial" font-size="15.00">Track Circuit</text>
<text xml:space="preserve" text-anchor="middle" x="2100" y="-50.15" font-family="Arial" font-size="15.00">[track_circuit]</text>
</g>
<!-- signal_controller&#45;&gt;track_circuit -->
<!-- axle_counter_head -->
<g id="node44" class="node">
<title>axle_counter_head</title>
<path fill="#e2f0d9" stroke="#444444" stroke-width="2" d="M2419.4,-96.8C2419.4,-96.8 2270.6,-96.8 2270.6,-96.8 2264.6,-96.8 2258.6,-90.8 2258.6,-84.8 2258.6,-84.8 2258.6,-44 2258.6,-44 2258.6,-38 2264.6,-32 2270.6,-32 2270.6,-32 2419.4,-32 2419.4,-32 2425.4,-32 2431.4,-38 2431.4,-44 2431.4,-44 2431.4,-84.8 2431.4,-84.8 2431.4,-90.8 2425.4,-96.8 2419.4,-96.8"/>
<text xml:space="preserve" text-anchor="middle" x="2345" y="-68.15" font-family="Arial" font-size="15.00">Axle Counter Head</text>
<text xml:space="preserve" text-anchor="middle" x="2345" y="-50.15" font-family="Arial" font-size="15.00">[axle_counter_head]</text>
</g>
<!-- track_circuit&#45;&gt;axle_counter_head -->
<!-- trackside_rfid_tag -->
<g id="node45" class="node">
<title>trackside_rfid_tag</title>
<path fill="#e2f0d9" stroke="#444444" stroke-width="2" d="M2664.4,-96.8C2664.4,-96.8 2515.6,-96.8 2515.6,-96.8 2509.6,-96.8 2503.6,-90.8 2503.6,-84.8 2503.6,-84.8 2503.6,-44 2503.6,-44 2503.6,-38 2509.6,-32 2515.6,-32 2515.6,-32 2664.4,-32 2664.4,-32 2670.4,-32 2676.4,-38 2676.4,-44 2676.4,-44 2676.4,-84.8 2676.4,-84.8 2676.4,-90.8 2670.4,-96.8 2664.4,-96.8"/>
<text xml:space="preserve" text-anchor="middle" x="2590" y="-68.15" font-family="Arial" font-size="15.00">Trackside RFID Tag</text>
<text xml:space="preserve" text-anchor="middle" x="2590" y="-50.15" font-family="Arial" font-size="15.00">[trackside_rfid_tag]</text>
</g>
<!-- axle_counter_head&#45;&gt;trackside_rfid_tag -->
</g>
</svg>
